<svg width="1920" height="595" viewBox="0 0 1920 595" fill="none" xmlns="http://www.w3.org/2000/svg">
<g opacity="0.3">
<path d="M648.673 594.875C639.202 594.875 629.983 594.389 621.124 593.42C602.543 591.385 585.378 587.208 570.102 581.004C553.684 574.337 539.284 565.253 527.299 554.005C503.212 531.396 491.161 504.321 479.506 478.136C477.216 472.995 474.849 467.678 472.445 462.52C456.045 427.361 435.255 396.563 408.892 368.368C356.303 312.123 282.344 264.122 195.009 229.554C94.0064 189.579 -14.5879 169.666 -110.772 173.484C-167.304 175.729 -241.999 197.078 -275.382 233.54C-295.193 255.179 -296.791 279.192 -279.999 302.981L-280.332 303.082C-289.137 290.606 -292.973 278.098 -291.731 265.907C-290.591 254.724 -285.198 243.792 -275.697 233.415C-260.587 216.91 -235.668 202.282 -203.633 191.111C-174.032 180.789 -141.063 174.444 -110.794 173.242C-60.4578 171.246 -6.92279 175.676 48.3233 186.414C98.4032 196.15 147.82 210.593 195.199 229.346C282.586 263.932 356.589 311.96 409.208 368.238C435.585 396.453 456.386 427.267 472.797 462.445C475.204 467.604 477.571 472.923 479.857 478.064C491.502 504.23 503.545 531.286 527.6 553.861C550.862 575.697 582.351 588.924 621.186 593.176C674.966 599.064 740.274 586.749 795.879 560.229C876.011 522.013 931.624 466.388 985.408 412.596C994.836 403.168 1004.58 393.418 1014.23 384.003C1039.29 359.556 1073.22 327.878 1113.55 299.656C1154.77 270.81 1196.65 249.616 1241.6 234.861C1269.12 225.829 1298.28 219.745 1328.27 216.776C1355.97 214.033 1385.3 213.863 1415.43 216.266C1467.11 220.391 1522.78 232.041 1585.64 251.88C1709.42 290.948 1833.05 338.367 1953.12 392.824C2067.25 444.584 2179.18 503.153 2285.8 566.9L2285.55 567.077C2064.53 434.932 1828.99 328.958 1585.48 252.096C1447.91 208.671 1338.69 203.261 1241.77 235.074C1143.17 267.437 1074.29 325.841 1014.54 384.135C1004.89 393.547 995.143 403.297 985.716 412.726C931.917 466.536 876.286 522.178 796.099 560.42C770.187 572.779 741.036 582.418 711.801 588.295C696.357 591.4 681.005 593.429 666.166 594.329C660.252 594.696 654.415 594.875 648.673 594.875Z" fill="#FFE492"/>
<path d="M657.934 581.467C633.781 581.467 611.408 578.463 591.414 572.534C569.118 565.923 549.878 555.677 534.226 542.086C532.841 540.882 531.466 539.637 530.14 538.383C506.309 515.872 493.723 489.149 481.555 463.304C479.093 458.081 476.55 452.678 473.971 447.436C458.607 416.222 440.108 388.711 417.409 363.336C414.613 360.212 411.719 357.081 408.799 354.031C355.436 298.27 280.877 250.877 193.182 216.974C91.4503 177.682 -17.4517 158.592 -113.464 163.224C-169.586 165.96 -243.936 187.659 -277.462 223.84C-297.537 245.505 -299.809 269.567 -284.039 293.425L-284.376 293.521C-292.642 281.016 -296.038 268.485 -294.466 256.279C-293.023 245.069 -287.41 234.113 -277.777 223.715C-262.513 207.239 -237.667 192.594 -205.933 181.366C-176.602 170.986 -143.776 164.459 -113.497 162.984C-63.2227 160.559 -9.62903 164.566 45.793 174.893C95.9937 184.248 145.645 198.337 193.365 216.769C281.111 250.69 355.711 298.112 409.107 353.904C412.027 356.956 414.925 360.09 417.721 363.216C440.434 388.608 458.945 416.134 474.315 447.364C476.898 452.607 479.441 458.009 481.903 463.235C494.068 489.063 506.643 515.767 530.441 538.247C531.763 539.496 533.137 540.741 534.519 541.942C566.865 570.037 611.309 581.467 658.047 581.467C658.304 581.467 658.557 581.467 658.813 581.467C658.52 581.465 658.227 581.467 657.934 581.467ZM667.904 581.3C711.355 579.842 756.192 568.934 794.657 552.707C877.629 517.56 937.261 463.275 994.932 410.779C997.307 408.615 999.681 406.456 1002.06 404.297C1007.27 399.557 1013.45 393.946 1019.76 388.29C1048.06 362.924 1082.32 333.409 1121.77 306.844C1163.74 278.577 1205.68 257.6 1249.97 242.714C1277.18 233.577 1305.94 227.14 1335.44 223.583C1362.78 220.287 1391.67 219.356 1421.3 220.814C1472.49 223.335 1527.53 232.89 1589.57 250.029C1650.06 266.713 1699.78 282.419 1746.05 299.455C1811.59 323.612 1874.02 351.446 1926.45 375.486C2048.34 431.537 2167.93 495.184 2281.91 564.659L2281.66 564.833C2167.69 495.368 2048.11 431.726 1926.24 375.682C1873.82 351.645 1811.4 323.815 1745.87 299.665C1699.62 282.634 1649.91 266.934 1589.43 250.254C1454.29 212.917 1346.47 210.588 1250.14 242.929C1150.15 276.532 1078.95 335.655 1020.06 388.434C1013.74 394.09 1007.57 399.698 1002.35 404.44C999.978 406.597 997.604 408.759 995.229 410.923C937.539 463.436 877.885 517.74 794.855 552.913C774.267 561.597 752.359 568.496 729.738 573.415C708.681 577.989 687.924 580.634 667.904 581.3Z" fill="#FFE492"/>
<path d="M668.145 568.367C665.24 568.367 662.352 568.326 659.487 568.242C635.356 567.546 613.024 563.929 593.113 557.487C571.338 550.442 552.472 540.008 537.043 526.472C535.672 525.265 534.306 524.018 532.987 522.764C509.423 500.364 496.314 473.997 483.64 448.501C480.998 443.187 478.265 437.691 475.495 432.358C459.373 401.25 440.386 373.959 417.442 348.925C414.602 345.83 411.664 342.726 408.699 339.7C354.563 284.424 279.403 237.639 191.35 204.403C88.8926 165.792 -20.3173 147.523 -116.161 152.969C-170.124 156.083 -244.259 176.545 -279.507 214.107C-299.871 235.808 -302.835 259.934 -288.08 283.876L-288.421 283.965C-296.152 271.422 -299.102 258.862 -297.196 246.635C-295.445 235.389 -289.597 224.405 -279.818 213.982C-264.392 197.545 -239.627 182.895 -208.197 171.614C-179.142 161.184 -146.466 154.479 -116.194 152.732C-65.9783 149.881 -12.326 153.462 43.2682 163.377C93.5935 172.353 143.476 186.086 191.533 204.197C279.638 237.455 354.838 284.266 409.007 339.573C411.971 342.601 414.914 345.706 417.753 348.806C440.708 373.854 459.706 401.161 475.835 432.286C478.605 437.622 481.339 443.118 483.98 448.432C496.651 473.913 509.75 500.261 533.284 522.635C534.603 523.889 535.962 525.134 537.332 526.335C600.027 581.338 711.135 575.433 793.433 545.184C879.867 513.134 944.101 459.867 1006.22 408.354L1006.86 407.825C1012.87 402.832 1019.1 397.671 1025.29 392.575C1090.63 338.812 1162.45 283.56 1258.33 250.563C1285.25 241.319 1313.62 234.53 1342.63 230.386C1369.61 226.533 1398.07 224.84 1427.19 225.357C1477.97 226.257 1532.37 233.721 1593.51 248.174C1657.76 263.31 1706.12 277.222 1750.29 293.286C1813.23 316.22 1874.19 345.201 1927.98 370.77C2047.74 428.006 2165.51 492.484 2278.03 562.406L2277.77 562.579C2165.27 492.663 2047.51 428.193 1927.76 370.962C1873.98 345.397 1813.03 316.421 1750.11 293.494C1705.95 277.435 1657.62 263.527 1593.39 248.397C1460.86 217.068 1354.45 217.822 1258.5 250.771C1162.68 283.747 1090.89 338.975 1025.57 392.718C1019.38 397.815 1013.16 402.978 1007.14 407.969L1006.51 408.498C975.549 434.168 943.541 460.712 908.974 484.422C870.128 511.066 832.392 531.008 793.609 545.387C753.033 560.3 708.834 568.367 668.145 568.367Z" fill="#FFE492"/>
<path d="M2273.89 560.322C2162.85 489.956 2046.91 424.658 1929.29 366.242C1924.31 363.786 1919.32 361.318 1914.31 358.843C1863.37 333.656 1810.69 307.613 1754.36 287.323C1699.71 267.695 1644.32 255.693 1597.35 246.542C1467.69 221.125 1362.69 224.962 1266.88 258.613C1168.54 293.26 1092.33 350.783 1031.1 397.006C1027.43 399.78 1023.76 402.559 1020.09 405.341C1017.37 407.394 1014.66 409.448 1011.94 411.5C977.081 437.845 945.368 461.399 910.329 482.892C870.3 507.444 831.718 525.426 792.37 537.866C755.495 549.526 716.103 555.694 679.463 555.697C672.787 555.697 666.21 555.493 659.747 555.079C636.151 553.569 614.306 549.325 594.82 542.464C573.558 534.979 555.066 524.346 539.849 510.86C538.49 509.651 537.134 508.402 535.822 507.145C512.537 484.862 498.918 458.866 485.75 433.728C482.914 428.313 479.979 422.712 477.011 417.276C460.12 386.265 440.642 359.192 417.471 334.508C414.587 331.437 411.601 328.361 408.596 325.362C353.684 270.572 277.926 224.395 189.517 191.821C86.3347 153.893 -23.1792 136.45 -118.854 142.703C-184.261 147.061 -251.144 172.401 -281.504 204.321C-302.187 226.068 -305.855 250.271 -292.118 274.314L-292.463 274.397C-299.655 261.809 -302.162 249.211 -299.912 236.953C-297.842 225.666 -291.752 214.646 -281.815 204.195C-266.229 187.805 -241.544 173.155 -210.429 161.833C-181.652 151.361 -149.145 144.481 -118.891 142.466C-68.734 139.186 -15.0268 142.343 40.7396 151.846C91.1859 160.445 141.306 173.823 189.7 191.611C278.165 224.204 353.962 270.407 408.908 325.23C411.916 328.232 414.902 331.31 417.786 334.381C440.972 359.08 460.457 386.167 477.359 417.192C480.327 422.63 483.262 428.229 486.098 433.646C499.259 458.771 512.871 484.75 536.126 507.006C537.438 508.261 538.79 509.508 540.146 510.714C605.596 568.723 716.84 561.478 792.212 537.648C882.138 509.216 950.953 457.22 1011.67 411.342C1014.38 409.288 1017.1 407.234 1019.81 405.183C1023.48 402.401 1027.15 399.622 1030.83 396.848C1065.78 370.464 1100.29 344.825 1138.24 321.199C1181.87 294.028 1223.9 273.488 1266.71 258.403C1293.35 249.046 1321.31 241.905 1349.82 237.182C1376.47 232.766 1404.48 230.315 1433.09 229.893C1483.54 229.151 1537.31 234.523 1597.46 246.312C1644.45 255.468 1699.86 267.475 1754.54 287.115C1810.89 307.411 1863.58 333.462 1914.54 358.654C1919.54 361.129 1924.54 363.597 1929.52 366.053C2047.14 424.474 2163.1 489.779 2274.15 560.152L2273.89 560.322Z" fill="#FFE492"/>
<path d="M2270.01 558.066C2158.33 485.906 2044.22 419.777 1930.82 361.521C1924.04 358.036 1917.1 354.443 1910.38 350.97C1862.31 326.094 1812.6 300.371 1758.61 281.152C1704.69 262.029 1648.84 251.985 1601.31 244.684C1474.81 225.063 1371.2 231.981 1275.26 266.455C1183.75 299.457 1112.05 349.083 1042.72 397.075L1035.1 402.343C1029.09 406.506 1022.87 410.808 1016.74 415.028C947.34 462.744 877.863 507.466 791.132 530.34C770.086 535.891 748.475 539.738 726.894 541.78C703.719 543.97 681.208 544.001 659.982 541.871C636.928 539.556 615.578 534.694 596.525 527.42C575.79 519.504 557.668 508.677 542.667 495.243C541.315 494.027 539.971 492.775 538.67 491.521C515.671 469.37 501.561 443.757 487.916 418.987C484.871 413.46 481.72 407.744 478.54 402.193C460.864 371.278 440.903 344.423 417.512 320.093C414.588 317.053 411.558 314.001 408.505 311.026C352.82 256.722 276.465 211.153 187.693 179.242C83.7814 142.001 -26.0404 125.379 -121.55 132.443C-186.36 137.338 -252.939 162.855 -283.453 194.497C-304.48 216.299 -308.874 240.595 -296.159 264.76L-296.508 264.839C-303.161 252.195 -305.217 239.549 -302.619 227.255C-300.223 215.921 -293.88 204.857 -283.768 194.373C-268.012 178.038 -243.416 163.403 -212.631 152.047C-184.139 141.536 -151.808 134.492 -121.594 132.208C-71.4962 128.503 -17.734 131.234 38.2083 140.325C88.7791 148.545 139.13 161.567 187.865 179.034C276.689 210.961 353.087 256.559 408.806 310.894C411.858 313.872 414.892 316.926 417.816 319.966C441.221 344.308 461.194 371.177 478.877 402.109C482.057 407.66 485.208 413.378 488.253 418.906C501.89 443.661 515.993 469.262 538.967 491.387C540.264 492.637 541.608 493.886 542.957 495.102C606.832 552.305 712.964 550.699 790.989 530.12C877.651 507.265 947.098 462.56 1016.47 414.865C1022.6 410.645 1028.82 406.343 1034.83 402.181L1042.45 396.912C1076.48 373.356 1111.67 348.995 1149.89 326.333C1193.18 300.668 1234.13 281.013 1275.08 266.244C1301.44 256.77 1329.01 249.277 1357 243.978C1383.32 238.994 1410.9 235.782 1438.97 234.429C1489.21 232.009 1542.33 235.289 1601.39 244.449C1648.94 251.755 1704.82 261.801 1758.77 280.941C1812.8 300.168 1862.52 325.898 1910.61 350.78C1917.32 354.254 1924.26 357.844 1931.05 361.332C2044.45 419.593 2158.58 485.726 2270.26 557.894L2270.01 558.066Z" fill="#FFE492"/>
<path d="M2266.12 555.812C2155.41 482.849 2043.11 415.892 1932.35 356.803C1924.03 352.363 1915.49 347.745 1907.24 343.281C1861.76 318.674 1814.73 293.229 1762.85 274.986C1709.19 256.191 1653.08 248.184 1605.27 242.831C1482.28 228.85 1380.07 238.851 1283.63 274.302C1199.47 305.37 1130.37 349.399 1063.54 391.979C1056.51 396.46 1049.24 401.092 1042.15 405.58C1033.83 410.851 1027.47 414.856 1021.54 418.561C989.769 438.395 951.942 461.234 912.246 480.23C870.179 500.359 830.157 514.29 789.89 522.822C768.715 527.307 747.196 530.137 725.927 531.228C703.089 532.401 680.977 531.539 660.209 528.665C637.708 525.55 616.856 520.071 598.225 512.38C578.021 504.04 560.276 493.02 545.481 479.629C544.147 478.416 542.81 477.161 541.513 475.902C518.818 453.899 504.235 428.682 490.129 404.294C486.857 398.638 483.475 392.79 480.063 387.11C461.593 356.281 441.144 329.647 417.544 305.678C414.576 302.665 411.502 299.641 408.406 296.69C351.947 242.872 274.992 197.911 185.861 166.663C81.2272 130.107 -28.9023 114.311 -124.244 122.181C-178.493 126.758 -249.348 147.842 -285.351 184.623C-306.756 206.492 -311.893 230.899 -300.201 255.202L-300.549 255.274C-306.665 242.566 -308.262 229.865 -305.302 217.523C-302.568 206.131 -295.962 195.019 -285.659 184.494C-269.735 168.227 -245.23 153.615 -214.786 142.236C-186.58 131.694 -154.443 124.489 -124.288 121.944C-74.2482 117.813 -20.4274 120.118 35.6834 128.797C86.3752 136.639 136.961 149.307 186.033 166.453C275.215 197.717 352.215 242.705 408.707 296.554C411.803 299.505 414.88 302.533 417.848 305.549C441.459 329.529 461.919 356.178 480.401 387.021C483.815 392.704 487.197 398.552 490.469 404.208C504.565 428.583 519.144 453.787 541.813 475.766C543.11 477.023 544.444 478.275 545.778 479.486C598.917 527.585 690.133 543.699 789.776 522.589C880.014 503.473 953.624 460.628 1021.29 418.384C1027.22 414.678 1033.57 410.674 1041.89 405.403C1048.98 400.915 1056.25 396.283 1063.28 391.802C1096.18 370.84 1130.2 349.165 1166.49 328.869C1207.52 305.915 1245.78 287.996 1283.46 274.089C1309.57 264.49 1336.73 256.646 1364.19 250.776C1390.2 245.216 1417.35 241.244 1444.87 238.968C1494.98 234.827 1547.47 236.012 1605.34 242.59C1653.17 247.947 1709.31 255.956 1763.02 274.768C1814.93 293.023 1861.98 318.475 1907.47 343.09C1915.72 347.554 1924.26 352.171 1932.58 356.612C2043.35 415.708 2155.66 482.669 2266.38 555.637L2266.12 555.812Z" fill="#FFE492"/>
<path d="M2262.24 553.558C2152.48 479.788 2042.01 412.001 1933.87 352.084C1924.67 346.988 1915.23 341.638 1906.09 336.465C1862.56 311.824 1817.56 286.345 1767.09 268.816C1713.39 250.246 1657.16 244.321 1609.23 240.975C1491.81 232.556 1388.04 246.023 1292 282.144C1215.53 311.036 1149.98 349.688 1086.58 387.068C1073.78 394.618 1060.54 402.426 1047.67 409.868C1039.79 414.423 1032.82 418.423 1026.33 422.095C996.173 439.153 956.055 461.024 913.186 478.898C870.112 496.855 829.372 508.764 788.639 515.301C744.213 522.432 699.874 522.485 660.42 515.457C638.484 511.548 618.126 505.454 599.912 497.341C580.248 488.583 562.88 477.371 548.286 464.021C546.964 462.805 545.637 461.548 544.348 460.289C521.975 438.454 506.938 413.65 492.399 389.665C488.882 383.863 485.247 377.864 481.579 372.035C462.299 341.288 441.363 314.869 417.572 291.272C414.561 288.284 411.442 285.287 408.302 282.362C351.07 229.03 273.518 184.675 184.028 154.095C78.6723 118.225 -31.765 103.253 -126.942 111.93C-191.443 117.938 -255.846 143.168 -287.195 174.707C-309.011 196.655 -314.906 221.188 -304.244 245.655L-304.595 245.719C-310.168 232.934 -311.304 220.166 -307.974 207.772C-304.896 196.315 -298.007 185.146 -287.503 174.576C-271.41 158.385 -247.001 143.807 -216.912 132.418C-189.003 121.854 -157.067 114.491 -126.993 111.69C-77.012 107.133 -23.1325 109.014 33.1505 117.28C83.9668 124.743 134.787 137.057 184.196 153.88C273.737 184.478 351.334 228.858 408.603 282.223C411.743 285.148 414.861 288.148 417.876 291.137C441.678 314.749 462.625 341.18 481.916 371.942C485.584 377.771 489.219 383.772 492.736 389.574C507.268 413.547 522.297 438.339 544.648 460.153C545.938 461.412 547.26 462.664 548.583 463.88C600.81 511.668 690.516 530.803 788.551 515.069C877.924 500.724 955.535 461.819 1026.09 421.916C1032.57 418.244 1039.55 414.246 1047.42 409.691C1060.29 402.249 1073.53 394.443 1086.33 386.893C1149.74 349.506 1215.31 310.845 1291.82 281.941C1317.7 272.206 1344.46 264.012 1371.37 257.582C1397.1 251.435 1423.81 246.703 1450.75 243.517C1500.84 237.593 1552.7 236.685 1609.27 240.74C1657.22 244.089 1713.5 250.016 1767.26 268.608C1817.76 286.149 1862.78 311.637 1906.33 336.288C1915.47 341.46 1924.91 346.808 1934.11 351.904C2042.25 411.826 2152.74 479.618 2262.5 553.393L2262.24 553.558Z" fill="#FFE492"/>
<path d="M2258.35 551.302C2149.58 476.719 2040.92 408.105 1935.4 347.365C1925.71 341.783 1915.73 335.873 1906.09 330.156C1864.15 305.307 1820.78 279.611 1771.33 262.646C1717.41 244.234 1661.13 240.421 1613.19 239.119C1500.21 235.825 1397.88 252.464 1300.38 289.987C1231.99 316.428 1171.04 349.892 1112.08 382.253C1091.81 393.381 1072.66 403.892 1053.19 414.154C1045.27 418.331 1038.05 422.084 1031.13 425.625C986.446 448.449 949.271 464.951 914.133 477.556C870.051 493.372 828.596 503.258 787.398 507.777C771.415 509.529 755.491 510.403 739.857 510.403C712.142 510.403 685.325 507.664 660.637 502.24C615.958 492.424 579.105 474.31 551.101 448.403C549.782 447.175 548.467 445.919 547.192 444.664C525.16 423.018 509.701 398.655 494.752 375.091C490.964 369.121 487.05 362.95 483.104 356.949C463 326.274 441.572 300.075 417.61 276.853C414.554 273.892 411.392 270.922 408.208 268.023C350.203 215.177 272.049 171.429 182.2 141.513C76.1227 106.332 -34.6187 92.1806 -129.63 101.665C-194.399 108.264 -256.944 133.015 -288.964 164.722C-311.223 186.761 -317.899 211.44 -308.277 236.093L-308.633 236.153C-313.656 223.279 -314.323 210.435 -310.611 197.976C-307.174 186.443 -299.997 175.211 -289.268 164.59C-273.007 148.488 -248.704 133.958 -218.981 122.569C-191.373 111.989 -159.661 104.482 -129.685 101.428C-79.7631 96.4438 -25.825 97.8992 30.6266 105.753C81.5675 112.841 132.618 124.8 182.368 141.297C272.269 171.233 350.466 215.004 408.508 267.882C411.692 270.783 414.854 273.753 417.914 276.717C441.891 299.95 463.329 326.164 483.441 356.851C487.387 362.852 491.304 369.025 495.089 374.995C510.031 398.547 525.482 422.901 547.496 444.528C548.771 445.78 550.082 447.036 551.401 448.262C603.694 496.644 689.689 518.249 787.335 507.538C880.288 497.34 962.619 460.312 1030.9 425.433C1037.82 421.893 1045.04 418.142 1052.96 413.965C1072.43 403.703 1091.58 393.195 1111.85 382.066C1170.81 349.699 1231.78 316.23 1300.19 289.779C1325.88 279.893 1352.24 271.348 1378.56 264.377C1404.05 257.627 1430.32 252.133 1456.64 248.052C1506.84 240.27 1558.06 237.268 1613.21 238.877C1661.19 240.179 1717.51 243.997 1771.5 262.431C1820.99 279.407 1864.37 305.116 1906.33 329.974C1915.98 335.691 1925.95 341.601 1935.64 347.18C2041.16 407.926 2149.83 476.546 2258.61 551.134L2258.35 551.302Z" fill="#FFE492"/>
<path d="M2254.47 549.048C2145.15 472.583 2041.28 405.068 1936.93 342.645C1926.97 336.69 1917.17 330.607 1906.79 324.168C1866.22 298.996 1824.26 272.969 1775.58 256.479C1720.98 238.073 1662.23 236.541 1617.15 237.264C1509.31 238.768 1408.43 258.58 1308.75 297.835C1248.94 321.501 1193.72 349.922 1140.32 377.409C1112.25 391.855 1085.74 405.497 1058.71 418.444C1050.68 422.291 1043.23 425.795 1035.92 429.159C990.63 449.974 952.231 464.926 915.071 476.214C869.967 489.916 827.797 497.779 786.152 500.254C764.754 501.525 743.503 501.286 722.988 499.543C701.268 497.698 680.361 494.158 660.85 489.023C617.603 477.641 581.626 458.723 553.915 432.792C552.607 431.562 551.303 430.303 550.035 429.049C528.373 407.625 512.526 383.726 497.2 360.615C493.111 354.449 488.883 348.072 484.629 341.872C463.681 311.264 441.771 285.282 417.643 262.444C414.539 259.509 411.333 256.565 408.113 253.692C349.335 201.332 270.584 158.193 180.375 128.939C97.1143 102.051 11.2515 88.0211 -67.4847 88.0211C-89.7436 88.0211 -111.416 89.1414 -132.32 91.4083C-196.308 98.4841 -258.461 123.324 -290.668 154.691C-313.399 176.833 -320.885 201.679 -312.315 226.543L-312.674 226.596C-317.148 213.622 -317.334 200.688 -313.231 188.157C-309.427 176.541 -301.938 165.235 -290.975 154.557C-274.546 138.555 -250.356 124.085 -221.015 112.708C-193.318 101.967 -162.669 94.5201 -132.385 91.1737C-82.5218 85.7639 -28.5251 86.7956 28.0987 94.2352C79.1605 100.942 130.449 112.545 180.537 128.721C270.796 157.992 349.595 201.155 408.41 253.546C411.634 256.419 414.844 259.365 417.947 262.303C442.086 285.153 464.008 311.146 484.966 341.769C489.22 347.969 493.452 354.346 497.541 360.514C512.86 383.616 528.699 407.505 550.343 428.912C551.611 430.164 552.915 431.423 554.219 432.651C606.04 481.141 690.561 505.69 786.123 500.013C882.82 494.265 970.302 459.02 1035.72 428.958C1043.02 425.594 1050.47 422.09 1058.5 418.246C1085.53 405.303 1112.03 391.659 1140.1 377.215C1193.51 349.726 1248.73 321.298 1308.56 297.624C1359.89 277.414 1410.25 262.686 1462.53 252.594C1512.96 242.861 1563.54 237.767 1617.15 237.02C1647.74 236.529 1672.7 237.382 1695.69 239.699C1725.38 242.691 1751.57 248.108 1775.75 256.261C1824.48 272.765 1866.46 298.807 1907.05 323.991C1917.43 330.43 1927.23 336.51 1937.18 342.466C2041.54 404.891 2145.42 472.411 2254.74 548.88L2254.47 549.048Z" fill="#FFE492"/>
<path d="M2250.58 546.792C2142.27 469.489 2040.17 401.17 1938.45 337.924C1928.39 331.667 1918.47 325.22 1907.97 318.396C1868.61 292.826 1827.91 266.383 1779.82 250.307C1724.77 231.988 1666.09 232.72 1621.11 235.403C1519.35 241.266 1419.91 264.253 1317.12 305.673C1266.48 326.18 1218.26 349.648 1171.63 372.345C1134.76 390.286 1099.95 407.234 1064.23 422.723C1056.16 426.228 1048.24 429.579 1040.71 432.681C995.335 451.362 954.544 465.157 916.009 474.856C869.868 486.47 826.984 492.316 784.907 492.723C763.498 492.929 742.331 491.665 722.006 488.962C700.7 486.128 680.196 481.697 661.063 475.79C619.3 462.895 584.195 443.173 556.726 417.17C555.436 415.942 554.139 414.681 552.875 413.419C531.62 392.256 515.429 368.863 499.769 346.24C495.339 339.839 490.755 333.218 486.15 326.781C464.345 296.23 441.947 270.469 417.676 248.021C414.529 245.112 411.279 242.194 408.014 239.348C348.463 187.474 269.111 144.943 178.544 116.352C71.0268 82.553 -40.3338 70.0482 -135.016 81.1407C-198.176 88.6689 -259.915 113.573 -292.301 144.584C-315.546 166.843 -323.863 191.876 -316.359 216.981L-316.718 217.027C-320.632 203.941 -320.331 190.907 -315.821 178.29C-311.633 166.577 -303.825 155.19 -292.605 144.447C-276.015 128.56 -251.946 114.162 -223 102.809C-195.622 92.0704 -165.222 84.4967 -135.082 80.9037C-85.2731 75.0702 -31.2214 75.6734 25.571 82.7014C76.7574 89.0352 128.277 100.283 178.701 116.134C269.324 144.739 348.719 187.297 408.304 239.202C411.572 242.048 414.826 244.969 417.973 247.88C442.258 270.34 464.664 296.113 486.479 326.676C491.089 333.112 495.669 339.733 500.102 346.137C515.755 368.75 531.939 392.134 553.179 413.283C554.443 414.542 555.74 415.803 557.026 417.029C609.393 466.598 690.32 493.398 784.899 492.479C861.642 491.737 942.866 472.668 1040.52 432.473C1048.04 429.371 1055.95 426.022 1064.02 422.518C1099.73 407.03 1134.55 390.088 1171.4 372.147C1218.04 349.447 1266.27 325.974 1316.93 305.463C1368.75 284.578 1418.3 268.769 1468.42 257.129C1519.18 245.337 1569.12 238.149 1621.08 235.157C1666.1 232.469 1724.85 231.739 1779.99 250.087C1828.13 266.182 1868.85 292.637 1908.23 318.219C1918.73 325.043 1928.65 331.487 1938.71 337.742C2040.43 400.991 2142.53 469.315 2250.85 546.622L2250.58 546.792Z" fill="#FFE492"/>
<path d="M2246.7 544.537C2139.39 466.395 2039.07 397.267 1939.98 333.206C1929.93 326.702 1919.99 319.945 1909.48 312.79C1871.24 286.763 1831.69 259.851 1784.07 244.139C1728.5 225.886 1669.91 228.891 1625.08 233.546C1529.32 243.301 1434.13 268.712 1325.5 313.518C1284.75 330.398 1244.93 348.916 1206.43 366.823C1159.66 388.573 1115.49 409.118 1069.75 427.011C1061.51 430.238 1053.35 433.335 1045.51 436.212C999.317 453.146 957.265 465.344 916.949 473.502C894.368 478.071 872.076 481.382 850.693 483.342C827.884 485.432 805.332 486.057 783.663 485.2C739.698 483.459 698.522 475.843 661.281 462.562C621.061 448.219 586.832 427.696 559.546 401.556C558.263 400.319 556.977 399.055 555.721 397.8C534.92 376.949 518.439 354.11 502.504 332.026C497.679 325.34 492.692 318.427 487.676 311.701C464.992 281.2 442.107 255.657 417.712 233.609C414.52 230.724 411.223 227.833 407.918 225.015C347.593 173.625 267.644 131.701 176.718 103.778C68.4825 70.671 -43.1822 58.9897 -137.707 70.884C-238.918 83.8173 -337.542 139.698 -320.395 207.429L-320.758 207.467C-325.048 190.524 -322.535 173.833 -313.29 157.852C-304.848 143.258 -290.995 129.523 -272.114 117.032C-254.56 105.418 -233.499 95.3909 -209.522 87.2283C-186.717 79.4655 -161.908 73.7302 -137.78 70.6471C-88.0299 64.3875 -33.9196 64.567 23.045 71.1832C74.356 77.1412 126.11 88.035 176.872 103.563C267.849 131.505 347.846 173.452 408.207 224.872C411.516 227.691 414.813 230.583 418.008 233.47C442.414 255.528 465.311 281.085 488.006 311.598C493.022 318.324 498.009 325.237 502.834 331.926C518.765 354.003 535.239 376.832 556.028 397.671C557.281 398.926 558.564 400.189 559.846 401.425C612.289 451.659 691.784 481.324 783.685 484.963C861.487 488.039 947.071 472.027 1045.33 436.007C1053.17 433.129 1061.32 430.034 1069.56 426.807C1115.29 408.919 1159.46 388.376 1206.22 366.63C1244.73 348.72 1284.55 330.2 1325.3 313.317C1433.98 268.492 1529.21 243.071 1625.02 233.309C1655.14 230.181 1680.08 229.18 1703.52 230.164C1733.47 231.421 1759.87 235.921 1784.23 243.923C1831.9 259.652 1871.47 286.581 1909.74 312.623C1920.25 319.775 1930.18 326.532 1940.24 333.034C2039.33 397.099 2139.66 466.23 2246.96 544.377L2246.7 544.537Z" fill="#FFE492"/>
<path d="M2242.81 542.282C2136.53 463.287 2037.97 393.355 1941.51 328.485C1931.53 321.773 1921.67 314.743 1911.23 307.296C1874.02 280.772 1835.54 253.342 1788.31 237.967C1731.53 219.562 1670.22 225.568 1629.04 231.686C1517.27 248.088 1417.11 286.22 1333.87 321.362C1303.96 334.044 1274.12 347.477 1245.25 360.468C1187.36 386.528 1132.68 411.143 1075.28 431.298C1066.83 434.264 1058.44 437.105 1050.31 439.745C1003.22 455.015 959.904 465.614 917.899 472.144C870.282 479.548 824.705 481.41 782.426 477.676C738.992 473.839 698.307 464.302 661.506 449.33C622.905 433.627 589.552 412.301 562.365 385.944C561.097 384.707 559.818 383.44 558.569 382.181C538.285 361.713 521.599 339.501 505.459 318.02C500.171 310.98 494.701 303.703 489.205 296.62C465.297 265.737 442.591 241.136 417.753 219.196C414.518 216.338 411.18 213.475 407.827 210.681C346.722 159.779 266.172 118.463 174.887 91.2015C65.9335 58.7882 -46.0391 47.9279 -140.402 60.6242C-241.976 74.4718 -338.586 129.594 -324.435 197.875L-324.798 197.906C-328.308 180.966 -325.271 164.291 -315.773 148.347C-307.068 133.738 -293.133 119.988 -274.352 107.484C-256.838 95.8213 -235.887 85.7199 -212.078 77.4544C-189.409 69.5839 -164.647 63.6834 -140.476 60.3872C-90.7805 53.7016 -36.6152 53.4574 20.5179 59.6595C71.9535 65.2417 123.942 75.7812 175.041 90.9836C266.381 118.26 346.975 159.599 408.109 210.533C411.462 213.329 414.803 216.194 418.042 219.052C442.895 241.002 465.609 265.617 489.527 296.513C495.023 303.596 500.494 310.875 505.781 317.915C521.917 339.389 538.6 361.593 558.869 382.052C560.119 383.311 561.394 384.575 562.661 385.812C615.511 437.047 693.573 469.588 782.47 477.439C862.199 484.481 949.754 472.079 1050.14 439.53C1058.27 436.892 1066.67 434.053 1075.1 431.087C1132.49 410.937 1187.16 386.327 1245.05 360.269C1273.91 347.278 1303.75 333.843 1333.67 321.158C1389.64 297.53 1436.2 280.073 1480.19 266.22C1531.98 249.914 1580.64 238.542 1628.95 231.451C1658.41 227.076 1684.08 225.094 1707.43 225.395C1737.51 225.783 1764.02 229.824 1788.47 237.752C1835.77 253.146 1874.26 280.592 1911.49 307.133C1921.94 314.578 1931.8 321.608 1941.77 328.315C2038.24 393.187 2136.8 463.125 2243.09 542.122L2242.81 542.282Z" fill="#FFE492"/>
<path d="M2238.93 540.025C2133.67 460.176 2036.88 389.437 1943.04 323.763C1933.2 316.876 1923.46 309.602 1913.15 301.899C1876.92 274.84 1839.47 246.86 1792.56 231.796C1735.16 213.434 1674.01 221.877 1633 229.826C1531.74 249.29 1441.41 286.349 1342.25 329.204C1324.36 336.962 1306.27 344.969 1288.78 352.715C1221.49 382.502 1151.92 413.302 1080.8 435.583C1072.16 438.292 1063.51 440.88 1055.1 443.274C1007.69 456.755 961.846 466.009 918.841 470.78C870.124 476.185 823.811 475.972 781.176 470.15C738.351 464.302 698.161 452.844 661.718 436.092C624.84 419.14 592.354 397.015 565.167 370.332C563.911 369.092 562.643 367.824 561.401 366.565C541.729 346.575 524.937 325.086 508.698 304.307C502.846 296.819 496.797 289.078 490.718 281.545C465.876 250.692 442.698 226.303 417.775 204.788C414.503 201.963 411.117 199.125 407.717 196.353C345.85 145.929 264.707 105.222 173.055 78.6251C63.3869 46.906 -48.8897 36.8691 -143.099 50.3649C-241.449 64.6075 -339.842 117.796 -328.48 188.319L-328.843 188.343C-331.573 171.403 -328.011 154.747 -318.261 138.839C-309.296 124.213 -295.277 110.452 -276.598 97.9327C-242.134 74.8382 -193.505 57.4144 -143.18 50.1279C-93.5432 43.0186 -39.3193 42.3484 17.986 48.1364C69.5461 53.3451 121.766 63.5279 173.201 78.4048C264.904 105.016 346.096 145.75 408.003 196.197C411.407 198.971 414.792 201.81 418.068 204.637C443.002 226.164 466.191 250.563 491.041 281.428C497.119 288.963 503.172 296.704 509.024 304.192C525.259 324.967 542.047 346.45 561.709 366.431C562.947 367.69 564.215 368.956 565.472 370.196C619.864 423.581 694.478 458.062 781.246 469.913C861.591 480.886 953.675 471.85 1054.95 443.053C1063.35 440.66 1071.99 438.074 1080.63 435.367C1151.73 413.094 1221.29 382.299 1288.56 352.516C1306.06 344.77 1324.15 336.763 1342.04 329.005C1385.44 310.245 1435.95 288.728 1486.08 270.764C1538.52 251.973 1586.54 238.508 1632.89 229.599C1662.07 223.943 1687.74 221.008 1711.35 220.63C1741.12 220.151 1768.49 223.837 1792.71 231.583C1813.72 238.331 1834.87 248.401 1857.37 262.371C1877.23 274.706 1895.63 288.451 1913.42 301.741C1923.72 309.441 1933.46 316.716 1943.3 323.6C2037.15 389.276 2133.94 460.018 2239.2 539.869L2238.93 540.025Z" fill="#FFE492"/>
<path d="M2235.04 537.77C2130.82 457.058 2035.8 385.513 1944.57 319.044C1934.9 312.007 1925.33 304.512 1915.2 296.579C1879.92 268.958 1843.44 240.396 1796.8 225.63C1753.22 211.873 1700.93 212.639 1636.96 227.971C1547.51 249.287 1467.56 284.941 1382.9 322.692C1372.36 327.393 1361.47 332.253 1350.62 337.052C1346.37 338.936 1342.12 340.825 1337.88 342.711C1257.22 378.542 1173.81 415.595 1086.32 439.872C1077.47 442.328 1068.59 444.661 1059.9 446.806C1011.45 458.758 964.307 466.365 919.797 469.415C869.955 472.828 822.898 470.545 779.941 462.626C737.783 454.854 698.087 441.473 661.956 422.855C626.935 404.809 595.322 381.886 567.992 354.72C566.746 353.478 565.49 352.207 564.255 350.945C545.33 331.582 528.593 310.961 512.401 291.019C505.847 282.942 499.064 274.591 492.253 266.462C466.451 235.63 442.803 211.452 417.822 190.373C414.502 187.572 411.077 184.762 407.632 182.016C344.981 132.081 263.237 91.9791 171.226 66.048C60.8473 35.0255 -51.7408 25.8097 -145.793 40.1049C-242.336 54.9004 -340.59 108.524 -332.519 178.765L-332.885 178.785C-334.831 161.842 -330.749 145.206 -320.746 129.338C-311.516 114.695 -297.417 100.917 -278.837 88.3885C-244.52 65.2461 -196.059 47.5637 -145.877 39.8727C-96.2953 32.3373 -42.0165 31.241 15.4574 36.6173C67.1421 41.4478 119.6 51.2764 171.373 65.8277C263.435 91.7756 345.23 131.899 407.907 181.861C411.351 184.606 414.785 187.421 418.104 190.222C443.096 211.313 466.759 235.499 492.568 266.342C499.383 274.471 506.162 282.825 512.72 290.901C528.904 310.839 545.642 331.456 564.559 350.811C565.794 352.073 567.047 353.341 568.293 354.584C623.865 409.821 697.083 447.098 780.036 462.389C861.924 477.484 956.038 472.163 1059.77 446.576C1068.45 444.432 1077.33 442.1 1086.17 439.647C1173.64 415.379 1257.03 378.334 1337.67 342.507C1341.92 340.619 1346.16 338.732 1350.41 336.849C1361.26 332.049 1372.15 327.19 1382.69 322.491C1467.37 284.733 1547.35 249.069 1636.83 227.743C1665.73 220.816 1691.39 216.931 1715.27 215.861C1745.16 214.523 1772.64 217.738 1796.96 225.412C1817.85 232.026 1838.73 242.141 1860.81 256.339C1880.28 268.865 1898.18 282.875 1915.48 296.424C1925.62 304.354 1935.18 311.846 1944.84 318.881C2036.08 385.352 2131.1 456.9 2235.32 537.614L2235.04 537.77Z" fill="#FFE492"/>
<path d="M2231.16 535.515C2136.03 460.305 2040.12 385.884 1946.09 314.324C1936.52 307.081 1927.03 299.299 1916.99 291.062C1884.33 264.267 1847.3 233.898 1801.05 219.461C1756.95 205.729 1704.58 207.904 1640.92 226.111C1565.23 247.688 1498.24 279.414 1427.33 313.003C1405.12 323.521 1382.15 334.4 1358.99 344.894C1318.56 363.252 1274.82 382.677 1228.97 400.368C1179.87 419.317 1135.01 433.639 1091.83 444.157C1082.76 446.366 1073.63 448.446 1064.68 450.335C1015.2 460.779 966.785 466.722 920.768 468C869.827 469.413 822.026 465.075 778.688 455.098C698.659 436.447 628.713 397.422 570.795 339.106C569.561 337.861 568.315 336.588 567.087 335.327C549.123 316.818 532.678 297.293 516.777 278.409C509.291 269.521 501.553 260.329 493.767 251.384C466.983 220.56 442.859 196.594 417.848 175.963C414.481 173.186 411.011 170.402 407.526 167.685C344.113 118.231 261.768 78.7397 169.398 53.4716C58.3047 23.1433 -54.5875 14.7533 -148.485 29.8457C-245.615 45.5461 -341.407 98.4591 -336.56 169.212L-336.926 169.222C-338.088 152.275 -333.478 135.657 -323.23 119.83C-313.733 105.169 -299.553 91.3761 -281.079 78.8378C-263.675 67.0249 -243.047 56.696 -219.769 48.1361C-197.169 39.8275 -173.218 33.5943 -148.577 29.6111C-99.0504 21.652 -44.713 20.1296 12.9295 25.0918C64.7387 29.5513 117.427 39.0232 169.537 53.249C261.962 78.5314 344.355 118.047 407.805 167.525C411.289 170.244 414.766 173.03 418.134 175.807C443.155 196.451 467.29 220.426 494.085 251.259C501.871 260.207 509.61 269.399 517.095 278.289C532.997 297.171 549.438 316.694 567.395 335.195C568.619 336.459 569.868 337.73 571.099 338.975C628.973 397.245 698.857 436.238 778.809 454.871C861.165 473.829 959.98 472.182 1064.57 450.105C1073.51 448.216 1082.64 446.139 1091.7 443.932C1188.25 420.418 1276.58 382.016 1358.78 344.696C1381.94 334.202 1404.9 323.324 1427.11 312.806C1498.04 279.211 1565.04 247.477 1640.77 225.891C1704.52 207.655 1757 205.48 1801.2 219.243C1821.92 225.709 1842.49 235.844 1864.09 250.223C1883.13 262.902 1900.49 277.143 1917.28 290.911C1927.32 299.148 1936.8 306.928 1946.37 314.166C2040.4 385.729 2136.31 460.149 2231.44 535.362L2231.16 535.515Z" fill="#FFE492"/>
<path d="M2227.27 533.261C2133.6 457.634 2039.51 382.385 1947.62 309.605C1938.35 302.282 1929.15 294.364 1919.4 285.981C1887.54 258.561 1851.43 227.481 1805.29 213.289C1760.67 199.58 1708.2 203.166 1644.87 224.247C1578.53 246.303 1517.57 277.445 1458.63 307.565C1429.07 322.667 1398.5 338.284 1367.36 352.734C1318.2 375.566 1276.84 392.982 1237.2 407.548C1188.31 425.508 1142.56 438.884 1097.35 448.44C1088.07 450.403 1078.69 452.227 1069.48 453.862C1021.46 462.376 974.314 466.685 929.209 466.687C926.703 466.687 924.212 466.673 921.72 466.646C869.574 466.091 821.033 459.671 777.446 447.569C756.407 441.694 735.804 434.238 716.213 425.405C697.797 417.104 679.701 407.326 662.425 396.343C631.343 376.585 602.287 352.754 573.605 323.49C572.374 322.231 571.146 320.97 569.926 319.704C553.284 302.438 537.54 284.389 522.316 266.934C513.526 256.859 504.439 246.439 495.287 236.297C467.107 205.05 443.235 181.993 417.877 161.544C414.466 158.794 410.952 156.036 407.423 153.345C343.241 104.382 260.298 65.4986 167.569 40.8936C55.7651 11.2619 -57.4349 3.69534 -151.179 19.5848C-246.487 35.7854 -342.155 89.1006 -340.598 159.655L-340.964 159.658C-341.69 126.794 -321.754 95.5445 -283.315 69.2878C-265.94 57.4198 -245.421 47.0167 -222.323 38.3611C-199.848 29.94 -175.944 23.544 -151.271 19.3502C-101.803 10.965 -47.4065 9.01896 10.4045 13.567C62.3383 17.6531 115.262 26.7707 167.705 40.6686C260.492 65.2903 343.482 104.198 407.705 153.19C411.234 155.883 414.755 158.643 418.166 161.393C443.536 181.855 467.418 204.918 495.605 236.177C504.758 246.322 513.849 256.742 522.635 266.817C537.859 284.27 553.599 302.316 570.238 319.577C571.458 320.843 572.682 322.105 573.913 323.361C634.86 385.545 701.483 426.102 777.589 447.348C882.999 476.619 994.447 466.922 1069.38 453.632C1078.59 451.997 1087.96 450.175 1097.24 448.212C1201.22 426.233 1296.1 385.538 1367.15 352.541C1398.29 338.095 1428.85 322.478 1458.4 307.378C1517.37 277.254 1578.33 246.102 1644.71 224.037C1673.04 214.603 1698.69 208.81 1723.1 206.33C1753.22 203.271 1780.92 205.54 1805.44 213.076C1826.1 219.431 1846.48 229.647 1867.72 244.306C1886.44 257.223 1903.35 271.77 1919.7 285.84C1929.44 294.22 1938.63 302.136 1947.9 309.454C2039.79 382.235 2133.88 457.483 2227.56 533.11L2227.27 533.261Z" fill="#FFE492"/>
<path d="M2223.39 531.006L1949.15 304.886C1940.19 297.501 1931.3 289.466 1921.88 280.961C1890.81 252.892 1855.58 221.08 1809.53 207.122C1765 193.626 1710.94 198.763 1648.83 222.391C1589.13 245.105 1534.68 275.312 1482.02 304.525C1447.7 323.567 1412.2 343.255 1375.74 360.583C1266.13 412.665 1170.33 443.427 1074.28 457.394C1034.43 463.187 995.114 466.103 956.99 466.103C945.434 466.103 933.995 465.834 922.676 465.298C869.299 462.771 820.018 454.273 776.207 440.045C735.602 426.855 698.457 408.237 662.659 383.122C634.072 363.068 606.669 339.159 576.423 307.881C560.458 291.374 545 274.223 530.051 257.637C496.217 220.103 461.233 181.291 417.921 147.133C351.485 94.742 264.281 53.6563 165.737 28.3165C53.2257 -0.616325 -60.282 -7.3618 -153.872 9.32476C-244.483 25.4799 -342.829 76.4229 -344.639 150.101L-345.006 150.097C-344.196 117.164 -323.637 85.9188 -285.553 59.7387C-251.119 36.0673 -204.388 18.081 -153.967 9.09257C-104.554 0.283712 -50.0997 -2.08846 7.87616 2.04548C59.9346 5.75574 113.092 14.5215 165.872 28.0939C214.633 40.6321 260.943 57.1368 303.519 77.1506C346.45 97.332 385.036 120.824 418.199 146.975C461.53 181.145 496.525 219.967 530.366 257.51C545.315 274.093 560.773 291.242 576.734 307.747C620.863 353.385 683.438 409.64 776.372 439.824C882.951 474.44 997.155 468.355 1074.19 457.155C1170.21 443.197 1265.95 412.447 1375.52 360.384C1411.97 343.063 1447.46 323.375 1481.78 304.338C1534.45 275.12 1588.92 244.907 1648.65 222.181C1710.86 198.512 1765.04 193.37 1809.69 206.902C1830.31 213.152 1850.49 223.457 1871.4 238.41C1889.8 251.573 1906.26 266.441 1922.18 280.817C1931.59 289.322 1940.49 297.353 1949.44 304.735L2223.68 530.855L2223.39 531.006Z" fill="#FFE492"/>
<path d="M2221.18 513.621C2151.35 450.662 2091.43 399.573 2032.62 352.845C2004.08 330.146 1974.92 307.803 1945.97 286.437C1937.21 279.974 1928.54 273.099 1919.35 265.82C1896.27 247.524 1872.4 228.607 1844.93 214.568C1830.18 207.016 1815.98 201.608 1801.52 198.037C1757.14 186.966 1705.07 194.286 1646.75 219.796C1616.57 232.978 1589.09 247.979 1566.19 260.915C1541.95 274.609 1518.03 289.711 1494.9 304.315C1461.66 325.308 1427.28 347.014 1390.33 365.657C1367.84 377.034 1345.05 387.2 1322.58 395.875C1277.62 413.229 1229.36 427.529 1179.15 438.377C1148.13 445.006 1116.95 450.016 1086.5 453.266C1060.26 456.057 1033.96 457.668 1008.35 458.054C970.012 458.633 932.661 456.424 897.333 451.481C859.769 446.224 824.221 437.834 791.677 426.541C762.658 416.47 735.247 403.791 707.881 387.774C656.885 357.954 616.21 323.472 586.473 296.763C571.865 283.581 557.601 270.138 543.806 257.138C504.084 219.698 466.564 184.335 419.614 152.836C381.321 127.315 337.631 105.29 289.746 87.3708C252.948 73.5997 212.926 62.3373 170.794 53.8947C160.758 51.8864 150.531 50.0145 140.408 48.3365C96.8206 41.1242 47.752 36.4278 -5.43134 34.3764C-59.0506 32.2603 -105.441 34.0915 -147.244 39.98C-170.877 43.2834 -193.773 48.4658 -215.307 55.3812C-291.328 79.7971 -340.143 120.785 -345.889 165.025L-346.347 164.999C-344.815 153.205 -340.319 141.588 -332.988 130.467C-326.022 119.904 -316.456 109.716 -304.555 100.187C-282.069 82.186 -251.276 66.5981 -215.508 55.1107C-193.942 48.1833 -171.009 42.9937 -147.339 39.6856C-105.492 33.7923 -59.0653 31.9587 -5.40204 34.0771C47.8106 36.1286 96.9048 40.8298 140.521 48.0469C150.656 49.7272 160.886 51.5991 170.929 53.6098C213.095 62.0573 253.15 73.3292 289.977 87.1122C337.895 105.044 381.621 127.087 419.932 152.626C466.913 184.144 504.439 219.516 544.176 256.965C557.967 269.966 572.231 283.406 586.836 296.586C616.558 323.283 657.214 357.748 708.181 387.549C735.518 403.549 762.9 416.217 791.886 426.275C855.577 448.376 928.4 458.968 1008.33 457.755C1033.93 457.369 1060.2 455.758 1086.43 452.97C1116.86 449.719 1148.01 444.714 1179 438.09C1229.19 427.249 1277.41 412.959 1322.34 395.614C1344.8 386.946 1367.58 376.785 1390.04 365.417C1426.98 346.785 1461.35 325.083 1494.58 304.097C1517.71 289.491 1541.63 274.384 1565.89 260.685C1588.8 247.742 1616.29 232.736 1646.5 219.544C1672.46 208.186 1697.6 200.34 1721.22 196.22C1750.24 191.16 1777.31 191.677 1801.68 197.757C1816.19 201.34 1830.42 206.762 1845.21 214.331C1872.72 228.392 1896.6 247.321 1919.7 265.628C1928.89 272.905 1937.56 279.78 1946.31 286.238C1975.27 307.607 2004.43 329.952 2032.98 352.656C2091.79 399.389 2151.71 450.483 2221.55 513.447L2221.18 513.621Z" fill="#FFE492"/>
<path d="M2218.97 496.234C2154.22 432.21 2093.46 378.634 2033.19 332.447C2003.81 309.886 1973.39 288.199 1942.79 267.989C1934.67 262.627 1926.66 257.054 1918.17 251.156C1892.76 233.493 1866.48 215.229 1837.05 202.593C1822.19 196.185 1807.95 191.723 1793.51 188.951C1738.22 178.332 1682.06 198.449 1644.67 217.194C1618.19 230.436 1594 245.409 1569.49 260.865C1548.05 274.394 1527.87 288.948 1506.51 304.354C1474.8 327.224 1442.02 350.871 1404.92 370.727C1382.9 382.574 1359.92 392.816 1336.62 401.17C1293.22 416.734 1245.7 428.82 1191.33 438.122C1160.9 443.326 1129.75 447.034 1098.72 449.138C1072.54 450.893 1046.41 451.52 1021.04 450.995C983.313 450.225 946.431 446.759 911.417 440.695C874.645 434.326 839.559 425.019 807.136 413.034C778.728 402.535 751.3 389.508 723.281 373.212C672.395 343.657 628.804 310.891 596.517 285.647C584.565 276.302 572.803 266.9 561.426 257.804C516.121 221.582 473.328 187.366 421.307 158.541C382.428 136.998 338.778 118.782 291.578 104.4C255.865 93.5184 218.012 85.3654 175.861 79.4745C166.133 78.1173 156.237 76.8941 146.45 75.8384C103.464 71.2258 57.5864 69.4807 2.08014 67.6759C-37.931 66.3091 -90.3082 65.409 -140.626 70.6321C-164.457 73.0593 -187.493 77.2747 -209.1 83.156C-285.172 103.869 -336.776 140.052 -347.145 179.951L-347.688 179.891C-344.939 169.311 -339.37 158.934 -331.144 149.045C-323.303 139.624 -313 130.59 -300.524 122.188C-276.814 106.227 -245.274 92.6136 -209.312 82.8233C-187.665 76.93 -164.585 72.7075 -140.714 70.2755C-90.3485 65.0452 -37.931 65.9476 2.10574 67.3144C57.6303 69.1193 103.522 70.8643 146.538 75.4794C156.332 76.5374 166.236 77.7606 175.975 79.1178C218.166 85.0159 256.056 93.1761 291.809 104.07C339.057 118.466 382.743 136.696 421.662 158.261C473.721 187.108 516.531 221.333 561.851 257.569C573.224 266.663 584.986 276.065 596.938 285.408C629.218 310.642 672.791 343.396 723.647 372.936C751.633 389.216 779.032 402.228 807.407 412.715C871.161 436.281 943.049 449.037 1021.06 450.632C1046.4 451.153 1072.51 450.529 1098.66 448.774C1129.66 446.672 1160.79 442.969 1191.19 437.768C1245.51 428.475 1293 416.399 1336.36 400.85C1359.63 392.505 1382.58 382.277 1404.57 370.442C1441.64 350.603 1474.41 326.965 1506.11 304.108C1527.48 288.695 1547.66 274.138 1569.12 260.602C1593.63 245.136 1617.83 230.159 1644.34 216.902C1668.58 204.749 1692.48 196.008 1715.39 190.914C1743.17 184.738 1769.51 183.96 1793.67 188.599C1808.16 191.383 1822.45 195.859 1837.36 202.286C1866.84 214.947 1893.14 233.227 1918.58 250.905C1927.06 256.801 1935.08 262.371 1943.19 267.73C1973.8 287.948 2004.22 309.642 2033.62 332.21C2093.89 378.409 2154.68 431.994 2219.43 496.033L2218.97 496.234Z" fill="#FFE492"/>
<path d="M2216.76 478.847C2156.16 412.889 2096.31 358.329 2033.77 312.051C2003.53 289.629 1971.85 268.6 1939.62 249.544C1932.73 245.47 1925.63 241.147 1918.77 236.967C1890.45 219.699 1861.16 201.845 1829.18 190.62C1814.17 185.316 1799.88 181.797 1785.51 179.865C1730.33 172.447 1677.34 194.656 1642.59 214.591C1619.05 228.049 1597.52 243.301 1576.7 258.054L1572.8 260.816C1553.9 274.199 1536.17 288.878 1517.4 304.42C1487.5 329.169 1456.59 354.757 1419.51 375.798C1397.93 388.13 1374.77 398.45 1350.67 406.469C1308.65 420.45 1261.88 430.427 1203.5 437.867C1173.31 441.714 1142.17 444.117 1110.93 445.007C1084.81 445.723 1058.84 445.364 1033.73 443.935C957.701 439.629 886.663 424.687 822.587 399.527C794.887 388.65 767.44 375.281 738.681 358.649C690.011 330.564 646.725 301.696 606.563 274.534C601.177 270.894 595.85 267.277 590.563 263.689C535.709 226.469 483.899 191.312 423.011 164.254C383.26 146.588 339.654 132.183 293.41 121.435C259.46 113.545 222.665 108.188 180.932 105.057C171.527 104.356 161.96 103.779 152.496 103.343C128.687 102.266 103.434 102.091 76.6981 101.907C55.2233 101.759 33.0193 101.605 9.58786 100.981C-35.6665 99.6713 -86.9554 98.1896 -134.016 101.292C-158.298 102.893 -181.473 106.139 -202.9 110.941C-278.943 127.984 -333.339 159.368 -348.409 194.893L-349.028 194.781C-345.057 185.414 -338.417 176.277 -329.298 167.624C-320.577 159.349 -309.541 151.464 -296.497 144.19C-271.549 130.277 -239.254 118.644 -203.112 110.544C-181.637 105.73 -158.415 102.477 -134.086 100.873C-86.9774 97.7683 -35.6628 99.2524 9.60986 100.562C33.0266 101.184 55.2306 101.34 76.6981 101.488C103.445 101.672 128.705 101.847 152.536 102.927C162.008 103.365 171.585 103.942 180.998 104.643C222.783 107.776 259.621 113.141 293.619 121.042C339.918 131.802 383.571 146.224 423.366 163.909C484.31 190.991 536.145 226.165 591.021 263.401C596.308 266.989 601.639 270.604 607.021 274.247C647.175 301.404 690.448 330.265 739.102 358.341C767.832 374.953 795.25 388.31 822.917 399.173C886.909 424.302 957.855 439.222 1033.78 443.523C1058.87 444.95 1084.81 445.309 1110.9 444.593C1142.1 443.703 1173.22 441.302 1203.37 437.46C1261.69 430.028 1308.41 420.063 1350.37 406.1C1374.43 398.098 1397.54 387.798 1419.08 375.487C1456.12 354.472 1487.01 328.898 1516.89 304.164C1535.67 288.614 1553.41 273.929 1572.33 260.536L1576.22 257.774C1597.05 243.014 1618.59 227.752 1642.17 214.28C1677.02 194.28 1730.2 172.007 1785.63 179.459C1800.07 181.4 1814.41 184.931 1829.48 190.257C1861.53 201.505 1890.85 219.378 1919.21 236.666C1926.06 240.845 1933.16 245.168 1940.04 249.24C1972.29 268.306 2003.98 289.347 2034.24 311.781C2096.81 358.077 2156.68 412.656 2217.3 478.637L2216.76 478.847Z" fill="#FFE492"/>
<path d="M2214.55 461.456C2158.91 394.502 2098.28 337.371 2034.34 291.656C2003.26 269.375 1970.32 249.002 1936.45 231.102C1931.56 228.517 1926.55 225.834 1921.7 223.239C1889.69 206.098 1856.59 188.37 1821.33 178.651C1806.19 174.436 1791.86 171.863 1777.52 170.781C1722.5 166.635 1672.65 190.9 1640.53 211.986C1620.57 225.013 1602.57 239.499 1585.15 253.51C1582.14 255.935 1579.13 258.355 1576.11 260.765C1559.55 274.007 1544.06 288.8 1527.66 304.46C1499.79 331.083 1470.96 358.611 1434.1 380.872C1412.45 393.944 1389.76 404.05 1364.71 411.772C1312.32 427.923 1259.97 433.9 1215.67 437.62C1185.7 440.133 1154.57 441.234 1123.14 440.885C1097.1 440.562 1071.29 439.214 1046.42 436.883C972.673 429.986 902.565 412.876 838.045 386.026C811.199 374.857 783.737 361.141 754.084 344.095C724.131 326.918 696.219 310.389 669.222 294.404C650.876 283.539 633.545 273.277 616.621 263.432C552.647 226.214 494.049 193.492 424.729 169.972C384.124 156.196 340.563 145.596 295.253 138.47C262.779 133.362 228.066 130.875 186.014 130.638C176.942 130.595 167.701 130.664 158.552 130.846C144.655 131.141 130.277 131.756 115.06 132.409C85.8582 133.661 52.7538 135.081 17.0955 134.286C3.5166 133.982 -10.3371 133.554 -23.7364 133.137C-58.2002 132.067 -93.8365 130.961 -127.41 131.95C-152.065 132.678 -175.383 134.956 -196.708 138.724C-272.622 152.141 -329.807 178.728 -349.681 209.844L-350.358 209.659C-345.155 201.511 -337.446 193.617 -327.447 186.194C-317.844 179.065 -306.075 172.332 -292.474 166.182C-266.265 154.334 -233.22 144.68 -196.905 138.262C-175.53 134.485 -152.16 132.199 -127.45 131.471C-93.8401 130.48 -58.1892 131.588 -23.7071 132.658C-10.3114 133.075 3.54224 133.503 17.1175 133.807C52.7428 134.602 85.8215 133.185 115.009 131.933C130.233 131.28 144.614 130.664 158.527 130.37C167.687 130.188 176.935 130.119 186.018 130.162C228.129 130.396 262.893 132.891 295.422 138.006C340.786 145.142 384.406 155.753 425.062 169.548C456.375 180.171 488.106 193.631 522.068 210.693C552.472 225.968 582.047 242.681 617.105 263.075C634.029 272.923 651.36 283.185 669.709 294.05C696.702 310.033 724.615 326.561 754.561 343.736C784.184 360.765 811.617 374.466 838.43 385.624C902.862 412.438 972.87 429.524 1046.51 436.411C1071.36 438.74 1097.14 440.085 1123.14 440.408C1154.54 440.758 1185.64 439.659 1215.56 437.146C1259.81 433.433 1312.1 427.463 1364.39 411.342C1389.37 403.641 1412.01 393.561 1433.6 380.523C1470.39 358.299 1499.2 330.793 1527.05 304.192C1543.46 288.523 1558.95 273.722 1575.54 260.466C1578.55 258.055 1581.56 255.635 1584.57 253.213C1602 239.193 1620.02 224.697 1639.99 211.653C1660.9 197.935 1682.34 187.381 1703.73 180.286C1729.07 171.882 1753.92 168.526 1777.59 170.312C1792 171.398 1806.4 173.983 1821.6 178.216C1856.95 187.96 1890.1 205.71 1922.15 222.873C1927 225.467 1932.01 228.151 1936.89 230.734C1970.79 248.648 2003.75 269.04 2034.86 291.338C2068.81 315.612 2102.06 343.269 2133.68 373.54C2161.63 400.295 2189.05 429.799 2215.17 461.231L2214.55 461.456Z" fill="#FFE492"/>
<path d="M2212.33 444.061C2160.84 375.187 2101.15 317.048 2034.92 271.259C2002.98 249.12 1968.79 229.405 1933.29 212.659C1931.6 211.862 1929.91 211.064 1928.22 210.265C1891.3 192.829 1853.13 174.8 1813.49 166.683C1798.13 163.537 1783.75 161.907 1769.55 161.696C1714.75 160.887 1668.02 187.18 1638.47 209.377C1621.08 222.363 1605.64 236.596 1590.71 250.36C1587.02 253.763 1583.2 257.282 1579.44 260.71C1565.09 273.765 1551.75 288.609 1537.62 304.326C1511.94 332.914 1485.38 362.474 1448.71 385.942C1427.49 399.519 1404.61 409.702 1378.76 417.075C1327.84 431.597 1276.13 435.41 1227.84 437.368C1198.06 438.575 1166.94 438.369 1135.34 436.758C1109.4 435.394 1083.75 433.06 1059.11 429.823C987.871 420.488 918.694 401.209 853.507 372.52C827.401 361.033 800.705 347.374 769.499 329.536C710.189 295.728 666.148 271.915 626.701 252.327C548.243 213.37 488.362 190.45 426.48 175.69C385.051 165.809 341.534 159.018 297.129 155.504C266.322 153.067 233.628 153.285 191.125 156.217C182.416 156.825 173.505 157.541 164.638 158.348C156.262 159.121 147.754 160.007 138.745 160.942C105.479 164.401 67.7725 168.322 24.6176 167.59C1.8714 167.204 -21.3622 166.149 -43.83 165.129C-69.3645 163.971 -95.7675 162.771 -120.8 162.608C-145.899 162.446 -169.359 163.757 -190.512 166.51C-266.174 176.351 -326.154 198.146 -350.956 224.809L-351.659 224.529C-345.218 217.602 -336.439 210.95 -325.568 204.757C-315.074 198.778 -302.58 193.198 -288.429 188.169C-260.942 178.397 -227.137 170.723 -190.673 165.981C-169.462 163.224 -145.95 161.907 -120.793 162.07C-95.7382 162.233 -69.3206 163.432 -43.775 164.593C-21.3145 165.613 1.90802 166.668 24.636 167.054C67.7139 167.784 105.38 163.868 138.609 160.413C147.623 159.475 156.138 158.592 164.517 157.816C173.395 157.01 182.313 156.294 191.03 155.683C233.599 152.749 266.348 152.529 297.221 154.973C341.688 158.491 385.267 165.292 426.755 175.187C488.721 189.966 548.664 212.91 627.192 251.901C666.653 271.496 710.71 295.316 770.034 329.134C801.218 346.958 827.885 360.602 853.962 372.078C919.061 400.725 988.135 419.978 1059.26 429.299C1083.87 432.531 1109.49 434.86 1135.4 436.224C1166.96 437.833 1198.04 438.039 1227.78 436.835C1276 434.879 1327.62 431.075 1378.43 416.586C1404.18 409.242 1426.98 399.093 1448.12 385.564C1484.71 362.146 1511.25 332.617 1536.91 304.06C1551.04 288.333 1564.39 273.478 1578.76 260.404C1582.53 256.978 1586.35 253.459 1590.03 250.056C1604.97 236.28 1620.42 222.037 1637.84 209.03C1657.12 194.543 1677.34 183.084 1697.93 174.97C1722.05 165.464 1746.15 160.823 1769.56 161.165C1783.85 161.376 1798.29 163.015 1813.73 166.175C1853.5 174.321 1891.73 192.374 1928.7 209.836C1930.39 210.636 1932.08 211.435 1933.77 212.23C1969.31 228.996 2003.54 248.734 2035.51 270.898C2101.8 316.728 2161.54 374.912 2213.07 443.834L2212.33 444.061Z" fill="#FFE492"/>
<path d="M1246.07 437.12C1244.01 437.12 1241.99 437.118 1239.99 437.11C1210.37 437.029 1179.26 435.521 1147.54 432.625C1121.69 430.219 1096.2 426.899 1071.79 422.76C1036.91 416.857 1001.9 408.374 967.733 397.547C934.739 387.091 901.51 374.127 868.966 359.011C837.078 344.201 807.293 327.699 784.906 314.976C732.525 285.289 682.687 260.476 636.777 241.223C562.419 210.043 496.155 191.034 428.235 181.405C387.261 175.595 343.3 172.531 300.973 172.531C300.317 172.531 299.665 172.531 299.009 172.533C262.647 172.615 228.125 177.029 196.24 181.788C187.941 183.035 179.357 184.397 170.724 185.84C165.994 186.64 161.256 187.463 156.244 188.334C120.89 194.489 80.8164 201.461 32.1325 200.889C2.48325 200.54 -27.7999 198.534 -57.0865 196.593C-75.9965 195.338 -95.5477 194.043 -114.198 193.261C-139.835 192.186 -163.427 192.53 -184.327 194.29C-259.586 200.619 -322.362 217.624 -352.256 239.78L-352.945 239.385C-337.611 228.022 -314.546 218.184 -284.391 210.141C-255.592 202.462 -221.029 196.775 -184.444 193.699C-163.49 191.937 -139.835 191.587 -114.139 192.667C-95.4707 193.45 -75.9085 194.747 -56.9912 196.001C-27.723 197.943 2.54184 199.949 32.1508 200.296C80.7101 200.868 120.714 193.905 156.009 187.762C161.026 186.889 165.763 186.065 170.497 185.266C179.137 183.822 187.729 182.458 196.035 181.211C227.974 176.445 262.556 172.024 299.005 171.94C342.006 171.842 386.755 174.915 428.43 180.825C463.483 185.797 497.467 193.115 532.316 203.197C565.878 212.908 600.21 225.183 637.268 240.725C683.215 259.992 733.089 284.825 785.503 314.531C807.872 327.246 837.635 343.736 869.49 358.53C935.527 389.203 1003.67 410.619 1072.02 422.188C1096.4 426.322 1121.85 429.637 1147.67 432.041C1179.35 434.932 1210.41 436.44 1239.99 436.519C1286.28 436.644 1340.03 435.624 1392.46 421.824C1418.99 414.839 1441.95 404.625 1462.64 390.601C1498.98 365.969 1523.06 334.356 1546.36 303.781C1558.35 288.054 1569.67 273.199 1581.97 260.34C1585.92 256.22 1589.9 251.976 1593.74 247.871C1606.74 234.002 1620.18 219.663 1635.67 206.409C1653.36 191.161 1672.35 178.793 1692.11 169.649C1715.01 159.047 1738.36 153.116 1761.5 152.019C1775.79 151.342 1790.29 152.034 1805.83 154.135C1847.38 159.751 1888.57 176.067 1930.62 193.725C1967.28 209.121 2003.77 228.738 2036.14 250.456C2072.1 274.51 2105.89 302.73 2136.56 334.329C2163.88 362.482 2188.91 393.471 2210.95 426.437L2210.11 426.676C2162.78 355.88 2104.03 296.731 2035.49 250.875C2003.16 229.188 1966.73 209.6 1930.13 194.23C1888.15 176.603 1847.04 160.318 1805.64 154.722C1790.19 152.632 1775.77 151.945 1761.57 152.618C1719.04 154.636 1674.59 173.867 1636.4 206.773C1620.94 220.003 1607.51 234.329 1594.52 248.184C1590.68 252.292 1586.69 256.538 1582.75 260.658C1570.47 273.493 1559.15 288.336 1547.18 304.049C1535.75 319.05 1523.93 334.564 1510.37 349.477C1494.99 366.383 1479.6 379.97 1463.3 391.017C1442.52 405.104 1419.46 415.364 1392.8 422.382C1369.29 428.572 1344.02 432.663 1315.55 434.894C1291.43 436.773 1267.22 437.12 1246.07 437.12Z" fill="#FFE492"/>
<path d="M1304.82 438.319C1286.14 438.319 1268.19 437.591 1252.14 436.854C1222.62 435.499 1191.52 432.686 1159.73 428.492C1133.98 425.048 1108.66 420.744 1084.45 415.696C1018.18 401.901 952.74 378.938 884.41 345.5C854.61 330.92 826.518 315.232 800.306 300.414C748.555 271.247 696.929 247.597 646.853 230.118C573.206 204.412 504.301 190.746 430.002 187.113C387.667 185.042 343.025 185.887 300.896 189.554C265.633 192.623 232.39 200.029 201.356 207.349C193.591 209.19 185.333 211.201 176.814 213.324C174.685 213.858 172.538 214.401 170.362 214.949C134.619 223.978 94.1755 234.195 42.271 234.195C41.3953 234.195 40.5233 234.192 39.6403 234.185C4.52426 233.953 -31.3282 230.678 -66.0045 227.509C-79.7519 226.252 -93.9683 224.955 -107.609 223.904C-134.254 221.855 -157.33 221.25 -178.16 222.059C-253.921 225.003 -317.869 236.914 -353.601 254.745L-354.213 254.221C-336.549 245.407 -311.007 237.754 -280.357 232.091C-250.21 226.521 -214.892 222.825 -178.223 221.4C-157.334 220.589 -134.199 221.195 -107.496 223.248C-93.8401 224.299 -79.62 225.599 -65.869 226.853C-31.2256 230.018 4.59387 233.29 39.6439 233.522C92.6294 233.876 133.732 223.49 169.992 214.329C172.164 213.781 174.315 213.238 176.444 212.702C184.97 210.576 193.232 208.565 201.004 206.725C232.089 199.39 265.395 191.974 300.753 188.896C342.948 185.224 387.664 184.377 430.068 186.45C466.887 188.25 501.992 192.501 537.387 199.443C573.84 206.593 609.799 216.433 647.318 229.532C697.457 247.035 749.149 270.713 800.954 299.909C827.156 314.722 855.23 330.4 885.004 344.966C953.242 378.359 1018.58 401.288 1084.75 415.061C1108.92 420.1 1134.21 424.399 1159.92 427.839C1191.67 432.028 1222.72 434.838 1252.2 436.188C1301.8 438.462 1354.57 439.63 1406.48 427.047C1433.8 420.423 1456.91 410.145 1477.15 395.622C1513.19 369.753 1535.63 334.467 1555.42 303.335C1565.38 287.67 1574.79 272.875 1585.17 260.262C1588.92 255.712 1592.69 251.008 1596.33 246.46C1607.74 232.23 1619.53 217.515 1633.48 203.773C1649.63 187.764 1667.39 174.486 1686.28 164.308C1707.97 152.619 1730.56 145.4 1753.43 142.855C1767.73 141.264 1782.28 141.01 1797.92 142.073C1841.61 145.048 1886 159.75 1927.46 175.197C1965.75 189.459 2003.54 208.407 2036.77 229.994C2073.73 253.936 2107.78 282.438 2137.98 314.702C2164.98 343.556 2188.82 375.287 2208.83 409.02L2207.89 409.257C2165.36 337.555 2105.94 275.728 2036.06 230.458C2002.9 208.912 1965.18 190 1926.97 175.767C1885.6 160.356 1841.33 145.69 1797.82 142.726C1782.27 141.668 1767.81 141.922 1753.61 143.502C1711.38 148.201 1669.02 169.732 1634.33 204.132C1620.4 217.846 1608.62 232.546 1597.23 246.762C1593.59 251.312 1589.82 256.016 1586.07 260.571C1575.71 273.155 1566.31 287.936 1556.36 303.584C1536.53 334.764 1514.06 370.107 1477.89 396.062C1457.55 410.664 1434.3 421 1406.83 427.662C1383 433.44 1357.28 436.787 1328.21 437.885C1320.36 438.197 1312.53 438.319 1304.82 438.319Z" fill="#FFE492"/>
<path d="M1341.7 440.912C1341.43 440.912 1341.17 440.912 1340.9 440.912C1314.5 440.869 1288.58 438.758 1264.28 436.599C1234.81 433.98 1203.73 429.86 1171.92 424.36C1146.29 419.881 1121.13 414.588 1097.13 408.633C1033.5 392.866 970.818 368.514 899.865 331.993C874.312 318.845 849.166 304.686 824.844 290.996C821.803 289.282 818.758 287.571 815.713 285.859C763.695 256.699 710.277 234.21 656.947 219.02C583.92 198.221 510.269 189.651 431.786 192.823C388.752 194.563 344.15 199.32 302.801 206.577C270.177 212.305 241.106 221.495 206.489 232.913C199.472 235.237 191.979 237.746 182.914 240.81L182.409 240.982C164.92 246.933 145.098 253.676 122.865 258.803C97.33 264.692 72.5575 267.526 47.1548 267.492C7.54312 267.428 -32.8821 262.612 -71.9735 257.951C-81.5513 256.809 -91.4588 255.629 -101.022 254.562C-128.447 251.505 -151.662 249.961 -171.994 249.844C-246.857 249.413 -313.55 256.661 -354.968 269.726L-355.444 269.079C-335.157 262.679 -307.79 257.484 -276.305 254.057C-244.762 250.622 -208.686 248.917 -171.983 249.128C-151.593 249.245 -128.319 250.792 -100.835 253.855C-91.2646 254.923 -81.3571 256.103 -71.7757 257.245C-32.7318 261.898 7.64203 266.71 47.1585 266.774C47.3344 266.774 47.5139 266.774 47.6898 266.774C104.215 266.774 147.278 252.125 181.903 240.345L182.412 240.173C191.481 237.107 198.974 234.598 205.994 232.274C240.67 220.837 269.792 211.63 302.519 205.885C343.937 198.613 388.612 193.85 431.72 192.107C470.126 190.556 506.352 191.739 542.476 195.727C581.402 200.023 618.992 207.427 657.387 218.364C710.819 233.583 764.329 256.108 816.431 285.316C819.476 287.028 822.521 288.741 825.562 290.455C849.873 304.14 875.012 318.294 900.542 331.433C971.405 367.909 1033.99 392.226 1097.52 407.967C1121.48 413.916 1146.61 419.199 1172.2 423.673C1203.97 429.166 1235 433.279 1264.43 435.892C1317.15 440.579 1368.75 443.83 1420.53 432.302C1448.62 426.045 1471.9 415.702 1491.67 400.679C1527.39 373.541 1546.91 335.938 1564.13 302.759C1572.19 287.226 1579.8 272.553 1588.39 260.223C1591.7 255.478 1595.01 250.571 1598.22 245.825C1608.24 230.984 1618.61 215.64 1631.32 201.172C1645.95 184.395 1662.49 170.205 1680.46 158.997C1700.96 146.225 1722.79 137.722 1745.37 133.729C1759.37 131.254 1773.66 130.048 1789.01 130.048C1789.34 130.048 1789.68 130.048 1790.01 130.05C1837.74 130.213 1886.86 144.379 1924.32 156.702C1964.22 169.831 2003.33 188.11 2037.41 209.562C2075.37 233.394 2109.7 262.176 2139.42 295.111C2166.09 324.666 2188.74 357.142 2206.72 391.64L2205.68 391.872C2178.92 340.541 2127.86 267.337 2036.65 210.082C2002.65 188.677 1963.63 170.442 1923.82 157.343C1886.47 145.054 1837.51 130.929 1790.01 130.768C1774.37 130.709 1759.87 131.91 1745.66 134.424C1703.83 141.823 1663.56 165.654 1632.27 201.529C1619.59 215.963 1609.24 231.29 1599.22 246.114C1596.02 250.863 1592.7 255.773 1589.39 260.52C1580.83 272.818 1573.22 287.473 1565.17 302.989C1547.92 336.228 1528.37 373.903 1492.51 401.145C1472.6 416.269 1449.17 426.682 1420.88 432.979C1396.91 438.315 1371 440.912 1341.7 440.912Z" fill="#FFE492"/>
<path d="M1371.03 444.282C1365.34 444.282 1359.53 444.162 1353.58 443.923C1327.53 442.877 1302.22 439.739 1276.43 436.34C1246.53 432.4 1216.33 427.129 1184.11 420.225C1158.61 414.715 1133.61 408.439 1109.8 401.566C1049.39 384.159 989.41 358.534 915.32 318.483C896.919 308.537 878.526 298.105 860.737 288.016C851.053 282.525 841.043 276.844 831.124 271.298C778.487 241.942 723.285 220.618 667.049 207.917C592.746 191.135 516.381 188.061 433.581 198.522C389.837 204.049 345.275 212.717 304.718 223.587C272.137 232.319 243.756 244.582 213.707 257.565L211.63 258.463C206.936 260.498 202.191 262.561 197.388 264.648C194.621 265.852 191.836 267.064 189.026 268.284C171.505 275.937 152.58 283.92 130.878 290.065C105.681 297.198 80.7579 300.707 54.6774 300.793C11.2588 300.932 -33.0283 294.34 -75.8534 287.958C-81.9649 287.046 -88.2891 286.106 -94.4263 285.213C-123.2 281.024 -145.884 278.613 -165.823 277.622C-239.404 273.967 -308.845 276.543 -356.345 284.691L-356.649 283.939C-309.024 275.769 -239.441 273.184 -165.732 276.847C-145.737 277.84 -122.995 280.258 -94.1662 284.454C-88.0252 285.349 -81.7011 286.29 -75.5859 287.202C-33.2848 293.504 10.4417 300.018 53.2851 300.018C53.7468 300.018 54.2085 300.018 54.6738 300.015C110.089 299.833 149.535 284.595 188.37 267.638C191.181 266.417 193.965 265.206 196.732 264.002C201.535 261.912 206.276 259.851 210.974 257.814L213.051 256.917C243.151 243.912 271.58 231.627 304.267 222.866C344.897 211.975 389.536 203.293 433.358 197.756C516.366 187.269 592.937 190.352 667.441 207.18C723.816 219.915 779.146 241.286 831.901 270.707C841.819 276.255 851.833 281.933 861.517 287.427C879.299 297.514 897.688 307.943 916.078 317.882C990.08 357.888 1049.98 383.477 1110.28 400.855C1134.06 407.716 1159.02 413.985 1184.48 419.486C1216.65 426.379 1246.81 431.643 1276.67 435.576C1321.99 441.548 1378.4 448.983 1434.57 437.532C1463.45 431.646 1486.88 421.238 1506.19 405.712C1541.57 377.275 1557.97 337.278 1572.45 301.993C1578.74 286.663 1584.68 272.184 1591.61 260.167C1594.31 255.485 1597.02 250.643 1599.63 245.958C1608.41 230.248 1617.49 214.005 1629.15 198.555C1642.3 180.998 1657.61 165.896 1674.64 153.669C1693.94 139.814 1715.03 130.031 1737.3 124.59C1751.6 121.097 1766.25 118.945 1782.1 118.009C1803.32 116.755 1825.91 118.096 1851.16 122.098C1872.52 125.487 1895.42 130.749 1921.17 138.186C1962.7 150.181 2003.11 167.791 2038.04 189.112C2077.02 212.832 2111.61 241.898 2140.85 275.501C2167.18 305.76 2188.64 338.98 2204.61 374.242L2203.47 374.462C2169.74 300.018 2110.7 234.394 2037.23 189.682C2002.39 168.419 1962.09 150.858 1920.68 138.899C1865.2 122.876 1821.21 116.482 1782.21 118.785C1766.46 119.714 1751.92 121.851 1737.72 125.317C1684.72 138.26 1650 172.476 1630.22 198.898C1618.59 214.308 1609.52 230.533 1600.75 246.224C1598.13 250.911 1595.42 255.756 1592.72 260.44C1585.81 272.421 1579.88 286.883 1573.6 302.194C1559.1 337.556 1542.66 377.636 1507.11 406.203C1487.65 421.851 1464.03 432.342 1434.92 438.276C1415.19 442.298 1394.15 444.282 1371.03 444.282Z" fill="#FFE492"/>
<path d="M1396.43 448.145C1357.68 448.145 1320.43 441.641 1288.56 436.078C1258.58 430.845 1228.4 424.306 1196.28 416.088C1170.93 409.553 1146.09 402.291 1122.46 394.499C1051.62 371.17 988.461 337.684 930.767 304.972C918.987 298.293 907.086 291.409 895.581 284.752C879.606 275.508 863.085 265.95 846.531 256.739C793.106 227.092 736.119 206.93 677.158 196.812C600.884 183.726 521.796 186.146 435.376 204.213C390.88 213.515 346.363 226.094 306.634 240.591C275.991 251.769 250.065 265.883 222.618 280.824C220.672 281.882 218.723 282.945 216.762 284.008L215.7 284.587C209.028 288.223 202.128 291.981 195.134 295.754C178.375 304.833 159.919 314.224 138.572 321.398C113.792 329.725 88.8111 333.878 62.192 334.094C15.4684 334.474 -32.153 325.893 -78.2024 317.594C-81.4304 317.012 -84.6437 316.433 -87.8424 315.861C-118.21 310.418 -140.363 307.191 -159.665 305.396C-231.399 298.727 -303.595 296.63 -357.742 299.643L-357.852 298.808C-303.617 295.787 -231.315 297.886 -159.485 304.565C-140.128 306.365 -117.928 309.599 -87.5053 315.052C-84.3066 315.624 -81.0933 316.203 -77.8616 316.787C-31.9001 325.069 15.6296 333.629 62.1737 333.256C119.981 332.787 160.692 313.319 194.313 295.107C201.308 291.335 208.207 287.577 214.879 283.943L215.942 283.364C217.902 282.299 219.851 281.238 221.797 280.18C249.292 265.212 275.262 251.075 306.007 239.858C345.809 225.335 390.411 212.735 434.984 203.416C475.955 194.852 514.439 189.906 552.629 188.298C595.23 186.505 637.235 189.097 677.48 196.003C736.629 206.152 793.784 226.372 847.359 256.099C863.924 265.315 880.449 274.876 896.428 284.123C907.933 290.78 919.826 297.661 931.602 304.338C989.237 337.014 1052.32 370.464 1123.03 393.75C1146.63 401.529 1171.43 408.782 1196.75 415.308C1228.81 423.513 1258.95 430.043 1288.89 435.269C1334.86 443.292 1392.07 453.279 1448.6 442.771C1478.26 437.256 1501.84 426.783 1520.69 410.755C1555.71 380.979 1568.81 338.522 1580.37 301.061C1585.01 286.009 1589.4 271.793 1594.81 260.118C1596.81 255.8 1598.82 251.338 1600.76 247.022C1608.36 230.142 1616.22 212.685 1626.96 195.945C1638.66 177.593 1652.73 161.574 1668.79 148.339C1686.91 133.405 1707.24 122.341 1729.21 115.454C1743.48 110.983 1758.18 107.883 1774.16 105.975C1795.69 103.407 1819.58 103.493 1845.17 106.232C1867.57 108.63 1892.07 113.152 1917.99 119.675C1961.14 130.535 2002.86 147.475 2038.66 168.664C2078.65 192.274 2113.51 221.62 2142.27 255.894C2168.25 286.856 2188.52 320.823 2202.49 356.848L2201.24 357.054C2171.64 280.719 2113.6 214.035 2037.8 169.287C2002.12 148.167 1960.53 131.282 1917.53 120.457C1861.79 106.428 1814.97 101.959 1774.39 106.801C1758.53 108.695 1743.93 111.773 1729.77 116.211C1677.49 132.596 1645.65 168.789 1628.15 196.269C1617.43 212.965 1609.58 230.398 1601.99 247.257C1600.05 251.573 1598.04 256.037 1596.04 260.36C1590.65 271.996 1586.26 286.193 1581.63 301.226C1576.06 319.248 1569.76 339.674 1560.61 358.823C1550.13 380.764 1537.4 397.917 1521.71 411.265C1512.64 418.982 1502.21 425.55 1490.71 430.788C1478.35 436.42 1464.3 440.724 1448.95 443.577C1431.38 446.845 1413.75 448.145 1396.43 448.145Z" fill="#FFE492"/>
<path d="M1419.33 452.384C1406.52 452.384 1393.1 451.57 1378.92 449.945C1351 446.745 1324.28 440.938 1300.7 435.817C1270.98 429.362 1239.94 421.331 1208.46 411.95C1183.27 404.4 1158.6 396.151 1135.12 387.429C1067.75 362.421 1009.71 329.17 946.214 291.46C940.572 288.109 934.841 284.69 929.301 281.382C907.482 268.363 884.923 254.901 861.938 242.181C807.626 212.187 748.859 193.188 687.267 185.71C609.575 176.277 525.427 184.415 437.172 209.904C391.884 222.983 347.407 239.471 308.55 257.589C279.293 271.231 255.209 287.314 229.711 304.343C227.121 306.073 224.519 307.809 221.903 309.552C215.392 313.894 208.379 318.554 201.245 323.22C186.285 333.036 168.053 344.222 146.27 352.727C121.886 362.249 96.8427 367.048 69.7142 367.396C20.052 368.035 -30.5005 357.292 -79.3895 346.903L-81.2509 346.508C-105.188 341.424 -130.51 336.287 -153.498 333.168C-223.569 323.662 -296.596 317.063 -359.123 314.586L-359.039 313.69C-296.446 316.17 -223.353 322.774 -153.22 332.289C-130.166 335.418 -104.8 340.562 -80.8258 345.654L-78.9645 346.048C-30.1817 356.413 20.2682 367.13 69.6886 366.496C126.763 365.763 166.181 344.957 200.274 322.581C207.408 317.918 214.414 313.257 220.925 308.917C223.541 307.177 226.142 305.439 228.733 303.711C254.275 286.653 278.402 270.541 307.755 256.854C346.685 238.7 391.247 222.181 436.618 209.078C478.026 197.121 518.773 188.882 557.722 184.593C602.225 179.693 645.896 179.769 687.523 184.822C749.35 192.329 808.334 211.395 862.829 241.491C885.831 254.223 908.402 267.69 930.232 280.717C935.772 284.023 941.503 287.441 947.145 290.792C1010.58 328.467 1068.56 361.682 1135.81 386.646C1159.25 395.354 1183.89 403.591 1209.04 411.131C1240.48 420.498 1271.46 428.517 1301.14 434.963C1347.66 445.069 1405.56 457.643 1462.65 448.009C1493.1 442.869 1516.84 432.335 1535.22 415.799C1569.85 384.645 1579.87 337.687 1587.92 299.955C1591.06 285.258 1594.02 271.377 1598.03 260.078C1599.3 256.516 1600.58 252.847 1601.81 249.297C1608.22 230.856 1614.86 211.785 1624.81 193.344C1640.17 164.646 1669.35 126.255 1721.14 106.333C1735.45 100.832 1750.2 96.7817 1766.25 93.9523C1808.24 86.4432 1858.23 88.8728 1914.84 101.169C1959.61 110.895 2002.64 127.165 2039.3 148.223C2080.3 171.719 2115.43 201.349 2143.71 236.294C2156.69 252.323 2168.15 269.443 2177.8 287.178C2187.01 304.118 2194.61 321.709 2200.38 339.463L2199.04 339.65C2173.59 261.419 2116.53 193.674 2038.39 148.895C2001.87 127.917 1959 111.709 1914.4 102.019C1858.06 89.7776 1808.33 87.3552 1766.61 94.8164C1750.68 97.6242 1736.03 101.643 1721.84 107.103C1670.41 126.887 1641.39 165.081 1626.1 193.638C1616.18 212.032 1609.56 231.076 1603.15 249.493C1601.91 253.043 1600.64 256.715 1599.37 260.279C1595.37 271.539 1592.41 285.401 1589.28 300.077C1585.23 319.064 1580.64 340.584 1572.79 360.894C1563.77 384.233 1551.84 402.365 1536.33 416.325C1527.48 424.289 1517.12 431.006 1505.56 436.287C1493.1 441.976 1478.78 446.213 1462.99 448.875C1449.14 451.216 1434.67 452.384 1419.33 452.384Z" fill="#FFE492"/>
<path d="M1440.44 456.86C1425.08 456.86 1408.89 455.561 1391.6 452.954C1363.58 448.734 1336.62 441.73 1312.83 435.549C1282.88 427.77 1251.87 418.436 1220.64 407.806C1195.62 399.249 1171.1 390.014 1147.79 380.355C1083.62 353.797 1028.59 319.567 970.323 283.331C967.44 281.538 964.556 279.742 961.665 277.947C934.57 261.115 906.555 243.707 877.349 227.622C822.092 197.248 761.544 179.41 697.387 174.603C616.8 168.564 529.857 182.354 438.967 215.586C393.504 232.208 347.868 253.16 310.466 274.582C282.224 290.756 259.573 308.955 235.592 328.225C232.752 330.506 229.905 332.794 227.036 335.087C221.305 339.676 214.487 345.117 207.349 350.682C194.129 361.016 176.117 374.148 153.964 384.027C129.969 394.729 104.87 400.184 77.2325 400.699C54.5155 401.07 29.4463 398.779 0.58844 393.693C-24.1877 389.327 -48.1541 383.62 -74.6743 377.157C-98.8824 371.185 -124.432 365.016 -147.354 360.942C-215.252 348.873 -286.971 338.305 -360.516 329.524L-360.252 328.584C-286.664 337.366 -214.904 347.944 -146.969 360.018C-123.985 364.104 -98.3988 370.282 -74.1613 376.259C-29.7094 387.096 25.6137 400.587 77.1922 399.742C136.161 398.641 174.058 375.216 206.224 350.065C213.358 344.504 220.173 339.066 225.9 334.479C228.769 332.186 231.616 329.898 234.452 327.619C258.473 308.319 281.165 290.088 309.499 273.861C346.978 252.397 392.701 231.404 438.252 214.751C529.417 181.418 616.661 167.592 697.555 173.653C728.571 175.977 759.037 181.375 788.101 189.696C819.285 198.622 849.63 211.139 878.294 226.892C907.533 242.994 935.567 260.411 962.677 277.255C965.568 279.053 968.455 280.846 971.338 282.639C1029.55 318.844 1084.53 353.04 1148.57 379.548C1171.86 389.193 1196.33 398.416 1221.32 406.959C1252.5 417.572 1283.47 426.893 1313.37 434.661C1360.37 446.869 1418.86 462.062 1476.69 453.251C1508.02 448.478 1531.91 437.878 1549.73 420.849C1584.05 388.324 1590.16 338.637 1595.07 298.715C1596.83 284.436 1598.49 270.95 1601.24 260.045C1601.81 257.794 1602.38 255.532 1602.95 253.258C1608.08 232.718 1613.4 211.476 1622.63 190.747C1635.82 160.931 1662.2 120.501 1713.06 97.2147C1727.25 90.7182 1742.05 85.7201 1758.32 81.9332C1780.93 76.6216 1806.13 74.125 1833.21 74.5079C1857.93 74.8574 1884.33 77.603 1911.67 82.6657C1958.05 91.252 2002.4 106.852 2039.92 127.778C2081.93 151.159 2117.33 181.076 2145.14 216.692C2157.9 233.034 2168.94 250.506 2177.97 268.621C2186.62 285.971 2193.45 303.957 2198.26 322.08L2196.82 322.243C2175.84 243.272 2118.3 172.657 2038.97 128.505C2001.61 107.67 1957.45 92.1353 1911.27 83.5825C1854.32 73.0358 1801.61 72.7773 1758.81 82.8309C1742.66 86.589 1727.97 91.5488 1713.9 97.9951C1663.39 121.121 1637.15 161.342 1624.04 191.01C1614.83 211.684 1609.52 232.895 1604.39 253.409C1603.82 255.683 1603.25 257.948 1602.69 260.198C1599.94 271.063 1598.29 284.532 1596.53 298.789C1591.6 338.826 1585.47 388.656 1550.93 421.39C1542.34 429.598 1532.07 436.468 1520.41 441.804C1507.86 447.544 1493.26 451.709 1477.02 454.184C1465.3 455.965 1453.16 456.86 1440.44 456.86Z" fill="#FFE492"/>
<path d="M1460.27 461.522C1442.77 461.522 1424.24 459.674 1404.27 455.964C1376.01 450.715 1348.88 442.516 1324.95 435.285C1294.71 426.146 1263.71 415.506 1232.81 403.666C1207.97 394.115 1183.62 383.892 1160.44 373.285C1103.36 347.175 1054.59 315.188 1002.94 281.321C994.499 275.785 985.768 270.061 977.106 264.434C946.658 244.662 920.658 228.358 892.749 213.065C836.507 182.289 774.182 165.612 707.5 163.496C623.711 160.836 533.961 180.273 440.748 221.265C394.442 241.631 348.847 266.598 312.365 291.569C284.881 310.381 263.395 330.859 240.649 352.539C237.831 355.225 235.002 357.92 232.155 360.618C227.084 365.432 220.372 371.775 213.443 378.135C184.285 404.964 146.19 432.585 84.7408 433.997C82.8245 434.038 80.9009 434.057 78.981 434.057C30.9969 434.057 -17.9911 421.65 -68.1075 407.798L-71.2366 406.927C-96.0604 400.004 -119.51 393.467 -141.216 388.708C-223.015 370.774 -302.125 355.637 -361.907 344.453L-361.479 343.474C-301.682 354.662 -222.55 369.802 -140.721 387.743C-118.957 392.514 -95.4815 399.061 -70.6248 405.991L-67.4993 406.862C-15.5471 421.222 35.1886 434.031 84.6859 432.982C145.454 431.584 183.23 404.176 212.172 377.549C219.097 371.193 225.802 364.855 230.873 360.043C233.72 357.343 236.545 354.65 239.363 351.965C262.145 330.251 283.664 309.739 311.236 290.867C347.792 265.844 393.479 240.827 439.876 220.421C482.939 201.481 526.017 186.94 567.912 177.195C615.98 166.014 662.971 161.064 707.573 162.478C774.599 164.604 837.24 181.362 893.746 212.282C921.695 227.599 947.721 243.92 978.198 263.708C986.864 269.336 995.595 275.062 1004.04 280.598C1055.63 314.431 1104.37 346.387 1161.33 372.445C1184.48 383.04 1208.79 393.247 1233.59 402.783C1264.45 414.608 1295.4 425.231 1325.6 434.356C1373.01 448.683 1432.01 466.511 1490.73 458.485C1522.82 454.097 1546.87 443.435 1564.23 425.892C1598.11 391.884 1600.15 339.402 1601.79 297.232C1602.32 283.473 1602.83 270.475 1604.45 260.003L1604.48 259.764C1608.11 236.312 1611.85 212.064 1620.45 188.139C1627.89 167.271 1638.25 148.509 1651.25 132.37C1665.91 114.176 1683.98 99.2771 1704.96 88.0865C1719 80.599 1733.86 74.6506 1750.37 69.9039C1794.99 57.0041 1849.66 55.0126 1908.49 64.1494C1932.16 67.8261 1955.51 73.3963 1977.9 80.7019C2000.41 88.0506 2021.49 97.0103 2040.54 107.327C2083.57 130.596 2119.24 160.796 2146.56 197.087C2171.12 229.706 2188.26 266.916 2196.14 304.691L2194.6 304.828C2177.74 223.978 2121.23 152.276 2039.54 108.11C2001.35 87.4234 1955.9 72.5633 1908.13 65.1452C1849.64 56.061 1795.31 58.031 1751.01 70.8422C1734.62 75.553 1719.89 81.4535 1705.95 88.8812C1666.77 109.776 1637.73 144.181 1621.97 188.376C1613.4 212.239 1609.66 236.454 1606.04 259.871L1606 260.111C1604.39 270.545 1603.88 283.524 1603.35 297.263C1601.7 339.563 1599.66 392.203 1565.53 426.45C1557.16 434.909 1546.96 441.927 1535.23 447.309C1522.58 453.111 1507.72 457.207 1491.04 459.488C1481.11 460.843 1470.88 461.522 1460.27 461.522Z" fill="#FFE492"/>
<path d="M85.8798 467.383C64.4233 467.383 41.0578 464.651 14.6879 459.074C-11.5135 453.533 -37.4256 445.882 -61.5275 438.443C-65.8914 437.088 -70.2222 435.735 -74.5238 434.392C-95.9363 427.707 -116.162 421.392 -135.064 416.473C-210.437 396.866 -282.281 379.244 -351.762 362.205L-363.274 359.381L-362.696 358.373L-351.183 361.197C-281.699 378.241 -209.843 395.863 -134.456 415.475C-115.502 420.406 -95.2512 426.728 -73.813 433.423C-69.515 434.766 -65.1842 436.118 -60.824 437.471C-11.3487 452.743 41.2154 467.543 92.1966 466.224C154.866 464.52 192.422 432.626 218.136 405.034C224.724 397.977 231.07 390.944 235.863 385.606C238.508 382.664 241.135 379.725 243.755 376.792C265.483 352.484 286.005 329.524 312.994 307.875C348.62 279.304 394.262 250.258 441.521 226.094C485.365 203.674 529.608 185.961 573.026 173.447C622.828 159.091 671.471 151.642 717.605 151.305C787.024 150.63 851.499 166.232 909.215 197.673C941.209 215.124 969.895 234 993.74 250.165C1006.71 258.962 1019.69 267.979 1032.24 276.699C1076.66 307.571 1122.59 339.491 1174.1 365.346C1197.11 376.898 1221.27 388.091 1245.88 398.611C1276.35 411.602 1307.29 423.527 1337.85 434.055C1385.61 450.509 1445.05 470.987 1504.77 463.72C1537.64 459.72 1561.84 448.996 1578.74 430.936C1612.18 395.387 1609.92 340.03 1608.1 295.55C1607.57 282.396 1607.06 269.971 1607.67 259.967C1609.04 237.416 1611.11 211.207 1618.28 185.537C1624.33 163.786 1633.45 144.107 1645.4 127.049C1658.92 107.754 1676.25 91.5768 1696.89 78.9667C1710.57 70.6103 1725.9 63.5177 1742.45 57.8829C1766.06 49.8161 1792.57 44.7438 1821.22 42.8097C1848.06 40.9977 1876.35 41.9504 1905.32 45.6391C1929.74 48.7509 1953.82 53.8687 1976.88 60.8535C2000.08 67.8815 2021.71 76.6376 2041.17 86.878C2063.6 98.6694 2084.22 112.594 2102.47 128.265C2119.75 143.113 2135.07 159.673 2148 177.482C2172.19 210.8 2188.11 248.779 2194.03 287.306L2192.39 287.414C2179.67 204.68 2124.18 131.894 2040.13 87.7181C2001.64 67.4625 1953.66 52.8944 1905 46.6971C1844.84 39.0348 1788.9 43.2334 1743.21 58.838C1726.79 64.4273 1711.58 71.4648 1698.01 79.7543C1659.12 103.514 1632.83 139.169 1619.9 185.731C1612.75 211.332 1610.68 237.495 1609.31 260.01C1608.71 269.978 1609.21 282.384 1609.75 295.521C1610.64 317.464 1611.66 342.337 1608.26 366.382C1604.31 394.283 1595.12 415.583 1580.15 431.498C1572 440.207 1561.88 447.376 1550.07 452.805C1537.32 458.669 1522.18 462.698 1505.08 464.778C1496.45 465.829 1487.83 466.305 1479.26 466.305C1427.93 466.305 1378.2 449.171 1337.08 435.005C1306.48 424.461 1275.49 412.519 1244.99 399.509C1220.33 388.974 1196.14 377.764 1173.1 366.196C1121.48 340.288 1075.5 308.335 1031.04 277.434C1018.49 268.716 1005.52 259.702 992.557 250.91C968.744 234.764 940.099 215.913 908.163 198.497C850.759 167.223 786.661 151.712 717.631 152.377C609.223 153.172 508.199 193.36 442.539 226.936C395.376 251.053 349.825 280.036 314.277 308.55C287.368 330.134 266.875 353.059 245.181 377.329C242.561 380.261 239.93 383.2 237.285 386.145C232.488 391.485 226.139 398.523 219.547 405.586C208.753 417.17 191.807 434.031 169.361 446.67C158.46 452.807 146.86 457.631 134.882 461.008C121.527 464.773 107.186 466.889 92.2662 467.294C90.1521 467.354 88.0233 467.383 85.8798 467.383Z" fill="#FFE492"/>
<path d="M92.7689 500.708C71.2867 500.708 47.9689 497.767 21.7381 491.763C-5.41959 485.549 -32.2696 476.812 -54.9499 469.083C-61.9189 466.703 -68.8731 464.29 -75.6003 461.957C-94.4041 455.434 -112.167 449.27 -128.915 444.238C-189.06 426.166 -248.813 408.522 -306.602 391.457C-325.717 385.813 -345.481 379.977 -364.637 374.308L-363.919 373.272C-344.763 378.94 -324.999 384.776 -305.884 390.421C-248.095 407.485 -188.335 425.132 -128.186 443.207C-111.394 448.253 -93.609 454.421 -74.7832 460.954C-68.0598 463.288 -61.1054 465.698 -54.1438 468.077C-7.10507 484.101 47.4559 501.063 99.7012 499.466C163.847 497.46 199.876 462.634 224.102 432.519C230.313 424.804 236.318 417.058 240.854 411.172C243.184 408.151 245.5 405.132 247.812 402.121C268.594 375.036 288.222 349.455 314.757 324.888C349.269 292.937 394.875 259.867 443.167 231.772C510.42 192.815 614.364 145.295 727.634 140.141C799.669 136.776 865.969 151.219 924.685 183.075C951.066 197.394 977.154 213.911 1009.28 236.634C1025.52 248.117 1041.63 260.018 1057.21 271.525C1097.74 301.463 1139.65 332.421 1186.88 358.261C1209.75 370.783 1233.74 382.959 1258.17 394.454C1287.76 408.359 1318.68 421.587 1350.09 433.771C1398.34 452.372 1458.38 475.527 1518.82 468.973C1551.95 465.454 1576.99 454.359 1593.25 435.999C1626.22 398.842 1619.15 338.051 1613.98 293.664C1612.53 281.207 1611.16 269.442 1610.89 259.951C1610.29 238.858 1610.34 211.045 1616.12 182.955C1626.09 134.279 1650.55 96.2285 1688.81 69.8665C1702.22 60.5789 1717.61 52.5097 1734.52 45.8815C1758.59 36.4407 1785.74 30.0902 1815.23 27.0095C1843.02 24.1083 1872.26 24.1538 1902.14 27.1459C1927.36 29.7264 1952.16 34.4037 1975.85 41.0438C1999.78 47.751 2021.96 56.2966 2041.8 66.4435C2064.73 78.1679 2085.68 92.14 2104.06 107.974C2121.49 122.981 2136.75 139.775 2149.44 157.895C2173.26 191.915 2187.95 230.659 2191.92 269.94L2190.18 270.014C2181.62 185.392 2127.15 111.52 2040.73 67.3411C2001.55 47.2986 1952.23 33.4222 1901.88 28.271C1839.81 22.0593 1782.25 28.4864 1735.42 46.8582C1718.64 53.4313 1703.39 61.4359 1690.08 70.6493C1652.07 96.8365 1627.77 134.671 1617.85 183.108C1612.09 211.122 1612.04 238.879 1612.63 259.932C1612.91 269.39 1614.27 281.14 1615.72 293.58C1618.39 316.524 1621.42 342.532 1619.69 367.922C1617.67 397.487 1609.52 419.942 1594.76 436.571C1586.82 445.541 1576.78 452.865 1564.91 458.342C1552.05 464.281 1536.64 468.235 1519.11 470.098C1491.92 473.044 1462.66 470.397 1429.65 462.002C1400.96 454.704 1373.47 444.104 1349.21 434.754C1317.76 422.554 1286.79 409.307 1257.16 395.383C1232.69 383.871 1208.67 371.678 1185.76 359.139C1138.44 333.247 1096.48 302.255 1055.9 272.286C1040.33 260.782 1024.23 248.887 1008.01 237.414C975.934 214.732 949.894 198.246 923.575 183.96C865.207 152.287 799.328 137.929 727.751 141.273C614.969 146.408 511.369 193.782 444.317 232.622C396.121 260.66 350.61 293.659 316.172 325.544C289.71 350.041 270.111 375.587 249.362 402.631C247.05 405.645 244.734 408.663 242.404 411.684C237.864 417.575 231.855 425.328 225.637 433.05C201.198 463.434 164.807 498.571 99.7782 500.603C97.4662 500.673 95.1248 500.708 92.7689 500.708Z" fill="#FFE492"/>
<path d="M99.7962 534.036C41.0986 534.036 -20.49 510.484 -75.0876 489.604C-91.8651 483.189 -107.712 477.128 -122.771 472.003L-366 389.236L-365.154 388.175L-121.925 470.943C-106.825 476.079 -90.9601 482.148 -74.1606 488.572C-17.4525 510.259 46.8254 534.84 107.205 532.71C172.765 530.4 207.302 492.642 230.067 460.008C237.512 449.335 244.701 438.474 251.655 427.971C270.675 399.246 290.34 369.542 316.512 341.898C337.294 319.947 363.111 296.927 391.17 275.328C421.952 251.633 454.91 229.893 489.121 210.715C526.842 189.571 565.197 172.08 603.116 158.731C645.058 143.966 686.377 134.327 725.934 130.078C805.176 121.568 877.247 134.482 940.14 168.466C992.407 196.704 1036.83 231.624 1079.79 265.394C1117.19 294.789 1155.85 325.182 1199.64 351.164C1250.21 381.171 1304.95 408.864 1362.33 433.469C1410.68 454.201 1470.85 480.005 1532.86 474.205C1585.24 469.308 1615.52 446.414 1625.43 404.213C1633.87 368.317 1625.84 325.735 1619.4 291.522C1617.2 279.862 1615.13 268.849 1614.11 259.918C1608.49 210.684 1612.07 170.041 1625.06 135.67C1633.16 114.224 1645.12 95.1082 1660.6 78.8525C1677.89 60.6938 1700.09 45.5559 1726.59 33.8602C1749.5 23.742 1775.33 16.3933 1803.36 12.0176C1830.04 7.85256 1858.12 6.45703 1886.84 7.86932C1943.32 10.646 1998.57 24.1849 2042.41 45.9892C2065.84 57.6442 2087.12 71.6665 2105.65 87.6637C2123.21 102.826 2138.42 119.857 2150.86 138.288C2174.3 173.009 2187.76 212.522 2189.79 252.552L2187.96 252.593C2183.64 167.348 2128.81 90.4691 2041.3 46.9443C1948.36 0.721689 1816.43 -4.36494 1727.6 34.8536C1639.61 73.7036 1603.08 147.293 1615.93 259.829C1616.94 268.731 1619.02 279.73 1621.21 291.376C1627.67 325.663 1635.71 368.336 1627.24 404.395C1622.62 424.035 1613.35 439.819 1599.67 451.312C1591.97 457.772 1582.7 463.053 1572.1 467.003C1560.82 471.206 1547.7 474.028 1533.12 475.392C1527.16 475.95 1521.09 476.23 1514.93 476.23C1492.45 476.23 1468.52 472.518 1442.29 464.997C1412.74 456.523 1384.23 444.296 1361.32 434.472C1303.86 409.831 1249.05 382.102 1198.4 352.052C1154.51 326.015 1115.81 295.586 1078.37 266.16C1035.47 232.433 991.099 197.557 938.964 169.39C876.492 135.639 804.915 122.808 726.22 131.26C567.032 148.356 403.053 252.76 318.058 342.529C291.956 370.098 272.317 399.761 253.322 428.447C246.364 438.955 239.172 449.823 231.719 460.506C216.605 482.171 201.678 497.685 184.743 509.323C174.172 516.586 162.704 522.312 150.657 526.34C137.261 530.819 122.671 533.366 107.289 533.909C104.805 533.993 102.302 534.036 99.7962 534.036Z" fill="#FFE492"/>
</g>
</svg>
